<?xml version="1.0" encoding="UTF-8" standalone="no"?>
<svg
   xmlns:dc="http://purl.org/dc/elements/1.1/"
   xmlns:cc="http://creativecommons.org/ns#"
   xmlns:rdf="http://www.w3.org/1999/02/22-rdf-syntax-ns#"
   xmlns:svg="http://www.w3.org/2000/svg"
   xmlns="http://www.w3.org/2000/svg"
   id="svg46"
   version="1.1"
   viewBox="0 0 11.56626 15.893785"
   height="60.070999"
   width="43.715">
  <defs
     id="defs40" />
  <metadata
     id="metadata43">
    <rdf:RDF>
      <cc:Work
         rdf:about="">
        <dc:format>image/svg+xml</dc:format>
        <dc:type
           rdf:resource="http://purl.org/dc/dcmitype/StillImage" />
        <dc:title></dc:title>
      </cc:Work>
    </rdf:RDF>
  </metadata>
  <g
     transform="translate(0,-281.10622)"
     id="layer1">
    <path
       id="path3754"
       style="fill:#000000;fill-rule:evenodd;stroke-width:0.13194896"
       d="m 1.5126099,281.98235 c 3.0095452,0.0261 3.5349525,0.90223 3.5349525,1.49069 0,1.2815 -1.5923468,2.07916 -2.3884212,2.43225 0.4776684,0.5492 4.060294,4.40676 4.2355354,4.58984 l 1.2101699,-0.79767 c -0.4458819,-0.39234 -3.3120513,-3.30835 -3.710115,-3.753 1.3057411,-0.67996 2.2133255,-1.543 2.2133255,-2.6545 0,-1.11148 -1.194204,-1.84376 -3.2960061,-2.05303 C 2.085915,281.11923 0.74832197,281.10617 0,281.10617 c 0.04775098,0.24846 0.07960475,2.95534 0.07960475,3.34761 v 1.0723 c 0,0.27457 0.03185227,4.41984 -0.03185227,4.73367 H 1.592281 C 1.560429,290.0636 1.51261,286.75526 1.51261,286.25837 Z" />
    <path
       id="path3756"
       style="fill:#000000;fill-rule:evenodd;stroke-width:0.13194896"
       d="m 6.7205962,297 c 3.5467888,0 4.8455498,-3.07296 4.8455498,-5.11286 0,-2.82451 -1.7858644,-4.4591 -4.1461279,-4.4591 -3.0097559,0 -4.9704252,2.35373 -4.9704252,5.25676 0,2.30141 1.5485267,4.3152 4.2710033,4.3152 z m 0.1124075,-0.96761 c -1.9606696,0 -3.1845619,-1.59539 -3.1845619,-3.54372 0,-2.23611 1.3613173,-4.09295 3.5967045,-4.09295 1.6359561,0 3.1096017,1.21611 3.1096017,3.5568 0,2.57605 -1.6484386,4.07987 -3.5217443,4.07987 z" />
  </g>
</svg>
