<?xml version="1.0" encoding="UTF-8" standalone="no"?>
<svg
   xmlns:dc="http://purl.org/dc/elements/1.1/"
   xmlns:cc="http://creativecommons.org/ns#"
   xmlns:rdf="http://www.w3.org/1999/02/22-rdf-syntax-ns#"
   xmlns:svg="http://www.w3.org/2000/svg"
   xmlns="http://www.w3.org/2000/svg"
   id="svg3936"
   version="1.1"
   viewBox="0 0 22.772687 26.085006"
   height="98.588997"
   width="86.07">
  <defs
     id="defs3930" />
  <metadata
     id="metadata3933">
    <rdf:RDF>
      <cc:Work
         rdf:about="">
        <dc:format>image/svg+xml</dc:format>
        <dc:type
           rdf:resource="http://purl.org/dc/dcmitype/StillImage" />
        <dc:title></dc:title>
      </cc:Work>
    </rdf:RDF>
  </metadata>
  <g
     transform="translate(0,-270.91499)"
     id="layer1">
    <path
       d="m 3.03308,272.67184 c 6.0347204,0.0524 7.088271,1.80914 7.088271,2.98913 0,2.56966 -3.192971,4.16912 -4.789251,4.87712 0.95781,1.10127 8.141681,8.83642 8.493071,9.20353 l 2.42662,-1.59949 c -0.89408,-0.78671 -6.6413006,-6.63387 -7.4395006,-7.52549 2.6182706,-1.36345 4.4381506,-3.09401 4.4381506,-5.32278 0,-2.22874 -2.39461,-3.6971 -6.6091309,-4.11673 C 4.1826701,270.94112 1.50053,270.91493 0,270.91493 c 0.0957,0.49821 0.15962,5.92603 0.15962,6.71261 v 2.15016 c 0,0.55057 0.0639,8.86264 -0.0639,9.49193 H 3.1928 c -0.0639,-0.3933 -0.15975,-7.02718 -0.15975,-8.02354 z"
       style="fill:#000000;fill-rule:evenodd;stroke-width:0.26458332"
       id="path3875" />
    <path
       d="m 13.842011,297 c 6.53699,0 8.9307,-5.66369 8.9307,-9.42338 0,-5.20579 -3.29147,-8.21844 -7.64161,-8.21844 -5.5472006,0 -9.160861,4.3381 -9.160861,9.68858 0,4.24167 2.8540504,7.95324 7.871771,7.95324 z m 0.20718,-1.78337 c -3.61365,0 -5.869381,-2.94043 -5.869381,-6.53135 0,-4.12132 2.509011,-7.54361 6.628991,-7.54361 3.01519,0 5.73122,2.2414 5.73122,6.55545 0,4.74785 -3.03819,7.51951 -6.49083,7.51951 z"
       style="fill:#000000;fill-rule:evenodd;stroke-width:0.24319154"
       id="path3877" />
  </g>
</svg>
