<?xml version="1.0" encoding="UTF-8" standalone="no"?>
<!-- Created with Inkscape (http://www.inkscape.org/) -->

<svg
   xmlns:dc="http://purl.org/dc/elements/1.1/"
   xmlns:cc="http://creativecommons.org/ns#"
   xmlns:rdf="http://www.w3.org/1999/02/22-rdf-syntax-ns#"
   xmlns:svg="http://www.w3.org/2000/svg"
   xmlns="http://www.w3.org/2000/svg"
   xmlns:sodipodi="http://sodipodi.sourceforge.net/DTD/sodipodi-0.dtd"
   xmlns:inkscape="http://www.inkscape.org/namespaces/inkscape"
   width="210mm"
   height="297mm"
   viewBox="0 0 210 297"
   version="1.1"
   id="svg8"
   inkscape:version="0.92.4 (33fec40, 2019-01-16)"
   sodipodi:docname="romodels_new_logo.svg">
  <defs
     id="defs2" />
  <sodipodi:namedview
     id="base"
     pagecolor="#ffffff"
     bordercolor="#666666"
     borderopacity="1.0"
     inkscape:pageopacity="0.0"
     inkscape:pageshadow="2"
     inkscape:zoom="0.9042042"
     inkscape:cx="77.321724"
     inkscape:cy="697.40988"
     inkscape:document-units="mm"
     inkscape:current-layer="Layer1000"
     showgrid="false"
     inkscape:snap-others="false"
     inkscape:snap-grids="true"
     inkscape:window-width="1920"
     inkscape:window-height="1020"
     inkscape:window-x="0"
     inkscape:window-y="32"
     inkscape:window-maximized="1" />
  <metadata
     id="metadata5">
    <rdf:RDF>
      <cc:Work
         rdf:about="">
        <dc:format>image/svg+xml</dc:format>
        <dc:type
           rdf:resource="http://purl.org/dc/dcmitype/StillImage" />
        <dc:title></dc:title>
      </cc:Work>
    </rdf:RDF>
  </metadata>
  <g
     inkscape:label="Layer 1"
     inkscape:groupmode="layer"
     id="layer1">
    <g
       id="Layer1000"
       transform="matrix(0.26458333,0,0,0.26458333,63.962259,87.830781)">
      <path
         d="M 20.500592,-199.51397 H -130.68031 v 1.5717 H 20.500592 Z"
         style="fill:#000000;fill-opacity:0;fill-rule:evenodd"
         id="path3742"
         inkscape:connector-curvature="0" />
      <path
         d="m -183.68131,-242.15007 c 22.8084,0.198 26.7903,6.8377 26.7903,11.2975 0,9.7121 -12.0679,15.7573 -18.1011,18.4332 3.6201,4.1623 30.7717,33.3975 32.0998,34.785 l 9.1715,-6.0453 c -3.3792,-2.9734 -25.101,-25.0729 -28.1178,-28.4428 9.8958,-5.1532 16.7741,-11.6939 16.7741,-20.1176 0,-8.4236 -9.0505,-13.9733 -24.9794,-15.5593 -9.2925,-0.892 -19.4297,-0.991 -25.101,-0.991 0.3619,1.883 0.6033,22.3976 0.6033,25.3705 v 8.1266 c 0,2.0809 0.2414,33.4966 -0.2414,35.875 h 11.7055 c -0.2414,-1.4865 -0.6038,-26.5594 -0.6038,-30.3252 z"
         style="fill:#000000;fill-rule:evenodd"
         id="path3744"
         inkscape:connector-curvature="0" />
      <path
         d="m -101.49621,-169.09087 h 13.232102 v -1.7586 H -99.29051 v -18.9925 h -2.2057 z m 16.707502,0 h 2.2058 v -20.7511 h -2.2058 z m 14.1681,0 h 2.2046 l 8.9895,-20.7511 h -2.3393 l -7.6857,18.2011 -7.6185,-18.2011 h -2.3724 z m 14.3352,0 h 15.0034 v -1.7586 h -12.7977 v -8.0893 h 11.4944 v -1.7587 h -11.4944 v -7.3859 h 12.2632 v -1.7586 h -14.4689 z m 19.8157,0 h 2.2058 v -20.7511 h -2.2058 z m 10.8933,-18.9925 h 4.6776 c 4.6452,0 5.5476,2.2569 5.5476,3.6927 0,1.4364 -0.9024,3.6932 -5.5476,3.6932 h -4.6776 z m -2.2057,18.9925 h 2.2057 v -9.8479 h 4.1096 l 6.6501,9.8479 h 2.506 l -6.8839,-9.9651 c 2.6066,-0.2931 6.048,-1.3775 6.048,-5.3347 0,-5.4513 -6.549,-5.4513 -8.4203,-5.4513 h -6.2152 z m 16.7411,0 h 2.3058 l 2.6732,-5.5102 H 6.4688916 l 2.5730999,5.5102 h 2.4730005 l -9.9579004,-20.7511 h -2.27230007 z m 16.7075996,-7.2688 H -5.193108 l 5.51339953,-11.3723 z"
         style="fill:#000000;fill-rule:evenodd"
         id="path3746"
         inkscape:connector-curvature="0" />
      <path
         d="m -101.76951,-152.53347 v -7.2825 h 1.4446 l 1.7223,5.1549 c 0.159,0.4801 0.2744,0.8392 0.3476,1.0784 0.083,-0.2645 0.2133,-0.6544 0.3899,-1.168 l 1.7526,-5.0653 h 1.2901 v 7.2825 h -0.9255 v -6.0925 l -2.126,6.0925 h -0.8678 l -2.1023,-6.2047 v 6.2047 z m 8.045202,-2.6396 c 0,-0.9744 0.2717,-1.6965 0.8156,-2.1661 0.4526,-0.3899 1.0069,-0.5851 1.6596,-0.5851 0.7237,0 1.3171,0.2376 1.7785,0.7121 0.4591,0.473 0.6895,1.129 0.6895,1.9649 0,0.678 -0.1017,1.2104 -0.3046,1.5986 -0.2035,0.3882 -0.5004,0.6896 -0.8903,0.9052 -0.3883,0.215 -0.8139,0.3217 -1.2731,0.3217 -0.7391,0 -1.3357,-0.2354 -1.7916,-0.7083 -0.4564,-0.473 -0.6836,-1.1543 -0.6836,-2.043 z m 0.9157,0.002 c 0,0.6747 0.1473,1.1801 0.4426,1.5139 0.2964,0.336 0.6676,0.5037 1.1169,0.5037 0.4444,0 0.8139,-0.1677 1.1103,-0.5053 0.2953,-0.3371 0.4427,-0.8508 0.4427,-1.5409 0,-0.6511 -0.149,-1.1444 -0.446,-1.4782 -0.2964,-0.3354 -0.6659,-0.5037 -1.107,-0.5037 -0.4493,0 -0.8205,0.1661 -1.1169,0.5004 -0.2953,0.3338 -0.4426,0.8375 -0.4426,1.5101 z m 8.4846,2.6379 v -0.6698 c -0.3338,0.5208 -0.8254,0.7815 -1.4749,0.7815 -0.4206,0 -0.8067,-0.115 -1.1575,-0.347 -0.3531,-0.231 -0.6258,-0.5549 -0.8205,-0.9684 -0.1936,-0.4152 -0.2904,-0.8914 -0.2904,-1.4304 0,-0.5257 0.0886,-1.0019 0.2629,-1.4309 0.1765,-0.4272 0.4394,-0.7561 0.7902,-0.9832 0.3492,-0.2288 0.7424,-0.3426 1.1747,-0.3426 0.3189,0 0.6016,0.0676 0.849,0.2018 0.2475,0.1336 0.4493,0.3102 0.6055,0.5257 v -2.6192 h 0.8952 v 7.2825 z m -2.8276,-2.6324 c 0,0.6747 0.1424,1.1779 0.4289,1.5117 0.2848,0.3344 0.6219,0.5004 1.0102,0.5004 0.3915,0 0.7237,-0.1594 0.9986,-0.4784 0.2728,-0.3184 0.4103,-0.8051 0.4103,-1.4595 0,-0.7187 -0.1392,-1.2477 -0.4191,-1.5848 -0.2777,-0.3371 -0.6219,-0.5054 -1.0305,-0.5054 -0.3981,0 -0.7303,0.1611 -0.9981,0.485 -0.2662,0.3239 -0.4003,0.8342 -0.4003,1.531 z m 8.6776,0.9238 0.9255,0.1221 c -0.144,0.5373 -0.4135,0.9558 -0.8067,1.2527 -0.3932,0.2964 -0.8952,0.4455 -1.5068,0.4455 -0.7698,0 -1.3802,-0.237 -1.8312,-0.7116 -0.4509,-0.473 -0.6764,-1.1395 -0.6764,-1.9957 0,-0.8848 0.2271,-1.5727 0.6836,-2.0611 0.4559,-0.4899 1.0476,-0.7341 1.7746,-0.7341 0.7039,0 1.2785,0.2392 1.7239,0.7187 0.446,0.4801 0.6698,1.1543 0.6698,2.0243 0,0.0522 -0.002,0.132 -0.005,0.237 h -3.9314 c 0.0341,0.5785 0.1969,1.0223 0.4917,1.3291 0.2931,0.3069 0.661,0.4614 1.1003,0.4614 0.3272,0 0.6066,-0.0863 0.837,-0.2595 0.2326,-0.1727 0.4158,-0.4493 0.551,-0.8288 z m -2.9294,-1.4341 h 2.9399 c -0.0391,-0.4444 -0.1529,-0.7765 -0.3377,-0.9987 -0.2826,-0.3442 -0.6522,-0.5169 -1.1053,-0.5169 -0.4102,0 -0.7539,0.1375 -1.0338,0.4119 -0.2783,0.2744 -0.4323,0.6423 -0.4631,1.1037 z m 4.9658,3.1427 v -7.2825 h 0.8947 v 7.2825 z m 1.9236,-1.5766 0.8854,-0.1424 c 0.0489,0.3541 0.188,0.6258 0.4151,0.8155 0.2272,0.1881 0.5456,0.2832 0.9525,0.2832 0.4119,0 0.7171,-0.083 0.9173,-0.2507 0.1985,-0.1667 0.2986,-0.363 0.2986,-0.5884 0,-0.2019 -0.0902,-0.3613 -0.2684,-0.4763 -0.1254,-0.0797 -0.4306,-0.1798 -0.9151,-0.3035 -0.6544,-0.1645 -1.1069,-0.3069 -1.3615,-0.4273 -0.2525,-0.1221 -0.4438,-0.2882 -0.5747,-0.5021 -0.1303,-0.2117 -0.1963,-0.4471 -0.1963,-0.705 0,-0.2353 0.0539,-0.4526 0.1611,-0.6527 0.1083,-0.1997 0.2541,-0.3663 0.4388,-0.4983 0.1392,-0.1017 0.3289,-0.188 0.5681,-0.2595 0.2409,-0.071 0.4966,-0.1067 0.771,-0.1067 0.4141,0 0.7765,0.0594 1.0883,0.1798 0.314,0.1188 0.5444,0.2816 0.6934,0.485 0.1474,0.2052 0.2513,0.4779 0.3069,0.8205 l -0.8744,0.1216 c -0.0391,-0.2745 -0.1545,-0.4895 -0.3443,-0.644 -0.1897,-0.154 -0.458,-0.2304 -0.805,-0.2304 -0.4086,0 -0.7023,0.0676 -0.8766,0.2035 -0.1749,0.1352 -0.2629,0.2947 -0.2629,0.4762 0,0.1155 0.0358,0.2205 0.1084,0.3134 0.0731,0.0952 0.1864,0.1749 0.3426,0.2376 0.0896,0.0341 0.3508,0.11 0.788,0.2288 0.6308,0.1677 1.0718,0.3068 1.3225,0.4135 0.2508,0.1067 0.4477,0.2645 0.5901,0.468 0.1441,0.2051 0.215,0.4592 0.215,0.7644 0,0.2969 -0.0863,0.5763 -0.2612,0.8391 -0.1743,0.2629 -0.4251,0.4664 -0.7523,0.6104 -0.3288,0.1441 -0.7,0.2151 -1.1141,0.2151 -0.6846,0 -1.2087,-0.1419 -1.5678,-0.4251 -0.3597,-0.2849 -0.5884,-0.7056 -0.6885,-1.2632 z m 5.6757,1.5766 v -1.0173 h 1.0173 v 1.0173 c 0,0.3745 -0.066,0.6781 -0.2001,0.9085 -0.132,0.231 -0.3443,0.4102 -0.6341,0.5356 l -0.2442,-0.386 c 0.1898,-0.0831 0.3289,-0.2051 0.4174,-0.3646 0.0897,-0.1611 0.1403,-0.3916 0.1507,-0.6935 z m 5.2148,-2.3393 0.9052,-0.0814 c 0.0423,0.3662 0.1424,0.6659 0.3003,0.9019 0.1572,0.2337 0.4014,0.4239 0.7319,0.5697 0.3305,0.1441 0.7039,0.2166 1.1174,0.2166 0.3679,0 0.6918,-0.0538 0.9728,-0.1644 0.2816,-0.11 0.49,-0.2606 0.6275,-0.4526 0.1375,-0.1913 0.2068,-0.3998 0.2068,-0.6236 0,-0.2271 -0.066,-0.4256 -0.1986,-0.5966 -0.1319,-0.17 -0.3508,-0.3124 -0.656,-0.429 -0.1947,-0.0748 -0.6269,-0.1935 -1.2967,-0.3547 -0.6698,-0.1605 -1.1372,-0.3118 -1.4056,-0.4542 -0.347,-0.1831 -0.6049,-0.4102 -0.7743,-0.6797 -0.1716,-0.2694 -0.2562,-0.573 -0.2562,-0.9068 0,-0.3695 0.105,-0.7138 0.314,-1.0322 0.2084,-0.3206 0.5114,-0.5631 0.9134,-0.7292 0.4003,-0.1661 0.8457,-0.2491 1.3357,-0.2491 0.5389,0 1.0157,0.0863 1.4276,0.2612 0.4119,0.1727 0.7286,0.4289 0.9508,0.7677 0.2222,0.3376 0.341,0.7204 0.358,1.1477 l -0.9261,0.0715 c -0.0489,-0.4598 -0.2166,-0.8073 -0.5031,-1.041 -0.2865,-0.2359 -0.7105,-0.3525 -1.2698,-0.3525 -0.5829,0 -1.0085,0.1067 -1.2747,0.32 -0.2662,0.2139 -0.4003,0.4713 -0.4003,0.7732 0,0.2612 0.0951,0.4762 0.2832,0.6456 0.1864,0.1683 0.6698,0.3426 1.4528,0.5191 0.7831,0.1777 1.3204,0.3322 1.6124,0.4642 0.4218,0.1952 0.7352,0.441 0.9371,0.7407 0.2018,0.2986 0.3019,0.6429 0.3019,1.0327 0,0.3883 -0.11,0.7507 -0.3322,1.0933 -0.2221,0.3426 -0.5389,0.6087 -0.9546,0.7985 -0.4152,0.1897 -0.8816,0.2848 -1.4018,0.2848 -0.6577,0 -1.2087,-0.0968 -1.653,-0.2881 -0.4455,-0.1914 -0.793,-0.4796 -1.046,-0.8662 -0.254,-0.3849 -0.3866,-0.8204 -0.3998,-1.3071 z m 10.4358,0.4069 0.8749,0.1221 c -0.0968,0.6016 -0.3409,1.0712 -0.7358,1.4122 -0.3953,0.3404 -0.8815,0.5098 -1.4561,0.5098 -0.7204,0 -1.3006,-0.2354 -1.7378,-0.7067 -0.4388,-0.4713 -0.6577,-1.146 -0.6577,-2.0242 0,-0.5692 0.0946,-1.0663 0.2832,-1.4936 0.1881,-0.4251 0.4746,-0.7457 0.8612,-0.9574 0.3844,-0.2139 0.8034,-0.3206 1.2577,-0.3206 0.5713,0 1.041,0.1441 1.4034,0.4339 0.3645,0.2898 0.5988,0.7022 0.7005,1.234 l -0.865,0.1325 c -0.083,-0.3541 -0.2287,-0.6203 -0.4405,-0.8001 -0.21,-0.1782 -0.4646,-0.2678 -0.7627,-0.2678 -0.4509,0 -0.8172,0.1611 -1.1004,0.4828 -0.2815,0.3239 -0.4223,0.8326 -0.4223,1.531 0,0.7088 0.1358,1.2224 0.4069,1.5425 0.2733,0.3206 0.6275,0.4817 1.063,0.4817 0.3525,0 0.6462,-0.1067 0.8799,-0.3222 0.2359,-0.2134 0.3849,-0.5439 0.4476,-0.9899 z m 1.6377,1.9324 v -7.2825 h 0.8947 v 2.6209 c 0.4157,-0.4867 0.9392,-0.7292 1.5733,-0.7292 0.3882,0 0.7253,0.0764 1.014,0.2304 0.2865,0.1545 0.4917,0.3663 0.6154,0.6374 0.1237,0.2716 0.1848,0.6665 0.1848,1.1817 v 3.3413 h -0.8953 v -3.338 c 0,-0.4459 -0.0968,-0.7709 -0.2882,-0.9744 -0.1935,-0.2035 -0.4646,-0.3052 -0.8171,-0.3052 -0.2629,0 -0.5104,0.0676 -0.7424,0.2051 -0.2326,0.1375 -0.3971,0.3239 -0.4966,0.5593 -0.0984,0.2342 -0.1479,0.5576 -0.1479,0.9711 v 2.8821 z m 5.321,-2.6396 c 0,-0.9744 0.2716,-1.6965 0.8155,-2.1661 0.4526,-0.3899 1.0069,-0.5851 1.6596,-0.5851 0.7237,0 1.3171,0.2376 1.7785,0.7121 0.4591,0.473 0.6896,1.129 0.6896,1.9649 0,0.678 -0.1018,1.2104 -0.3047,1.5986 -0.2035,0.3882 -0.5004,0.6896 -0.8903,0.9052 -0.3882,0.215 -0.8139,0.3217 -1.2731,0.3217 -0.7391,0 -1.3357,-0.2354 -1.7916,-0.7083 -0.4564,-0.473 -0.6835,-1.1543 -0.6835,-2.043 z m 0.9156,0.002 c 0,0.6747 0.1474,1.1801 0.4427,1.5139 0.2964,0.336 0.6676,0.5037 1.1168,0.5037 0.4444,0 0.8139,-0.1677 1.1103,-0.5053 0.2953,-0.3371 0.4427,-0.8508 0.4427,-1.5409 0,-0.6511 -0.149,-1.1444 -0.446,-1.4782 -0.2964,-0.3354 -0.6659,-0.5037 -1.107,-0.5037 -0.4492,0 -0.8204,0.1661 -1.1168,0.5004 -0.2953,0.3338 -0.4427,0.8375 -0.4427,1.5101 z m 4.7414,-0.002 c 0,-0.9744 0.2716,-1.6965 0.8155,-2.1661 0.4526,-0.3899 1.0069,-0.5851 1.6596,-0.5851 0.7237,0 1.3171,0.2376 1.7785,0.7121 0.4591,0.473 0.6896,1.129 0.6896,1.9649 0,0.678 -0.1018,1.2104 -0.3047,1.5986 -0.2035,0.3882 -0.5004,0.6896 -0.8903,0.9052 -0.3883,0.215 -0.8139,0.3217 -1.2731,0.3217 -0.7391,0 -1.3357,-0.2354 -1.7916,-0.7083 -0.4564,-0.473 -0.6835,-1.1543 -0.6835,-2.043 z m 0.9156,0.002 c 0,0.6747 0.1473,1.1801 0.4427,1.5139 0.2964,0.336 0.6675,0.5037 1.1168,0.5037 0.4444,0 0.8139,-0.1677 1.1103,-0.5053 0.2953,-0.3371 0.4427,-0.8508 0.4427,-1.5409 0,-0.6511 -0.149,-1.1444 -0.446,-1.4782 -0.2964,-0.3354 -0.6659,-0.5037 -1.107,-0.5037 -0.4493,0 -0.8204,0.1661 -1.1168,0.5004 -0.2954,0.3338 -0.4427,0.8375 -0.4427,1.5101 z m 5.057,2.6379 v -7.2825 h 0.8947 v 7.2825 z m 9.2727,-0.8644 c -0.2948,0.3255 -0.617,0.5697 -0.9646,0.7325 -0.3475,0.1622 -0.7236,0.2436 -1.1289,0.2436 -0.7463,0 -1.3374,-0.2508 -1.7752,-0.7523 -0.3541,-0.4103 -0.5323,-0.8661 -0.5323,-1.3715 0,-0.4493 0.1441,-0.8546 0.4339,-1.2153 0.2904,-0.363 0.7242,-0.6803 1.2989,-0.9547 -0.3305,-0.3761 -0.551,-0.683 -0.661,-0.9189 -0.1105,-0.2337 -0.1666,-0.4608 -0.1666,-0.6797 0,-0.4372 0.1716,-0.8172 0.5158,-1.1389 0.342,-0.3239 0.7743,-0.485 1.2967,-0.485 0.4966,0 0.9052,0.1523 1.2219,0.4575 0.3173,0.3052 0.4751,0.6731 0.4751,1.1004 0,0.6935 -0.4613,1.2868 -1.3852,1.7768 l 1.3187,1.6541 c 0.1512,-0.2914 0.2678,-0.6285 0.3509,-1.0134 l 0.926,0.2001 c -0.1595,0.6335 -0.375,1.1526 -0.6478,1.5574 0.3338,0.4427 0.7138,0.8139 1.1356,1.1158 l -0.6,0.7083 c -0.3591,-0.2288 -0.7286,-0.5692 -1.1119,-1.0168 z m -1.8307,-3.7824 c 0.3899,-0.2304 0.6407,-0.4305 0.7562,-0.6032 0.1149,-0.1727 0.1726,-0.3646 0.1726,-0.5747 0,-0.2491 -0.0797,-0.4526 -0.2375,-0.6104 -0.1573,-0.1573 -0.3558,-0.237 -0.5912,-0.237 -0.2425,0 -0.446,0.0775 -0.6071,0.2337 -0.1611,0.1562 -0.2425,0.3476 -0.2425,0.5747 0,0.1122 0.0291,0.232 0.088,0.3558 0.0577,0.1259 0.1441,0.2579 0.2612,0.397 z m 1.261,3.084 -1.6305,-2.0364 c -0.485,0.2865 -0.8122,0.5527 -0.98,0.7985 -0.1693,0.2458 -0.2546,0.4883 -0.2546,0.7292 0,0.2931 0.1172,0.5983 0.3531,0.9156 0.2337,0.3168 0.5658,0.4746 0.9948,0.4746 0.2678,0 0.546,-0.0814 0.8309,-0.2458 0.2865,-0.1645 0.5153,-0.3767 0.6863,-0.6357 z m 6.125,1.5628 v -7.2825 h 2.7495 c 0.4834,0 0.853,0.0236 1.1087,0.0693 0.358,0.0594 0.6577,0.1732 0.9002,0.3393 0.2425,0.1677 0.4377,0.4014 0.5851,0.7017 0.1474,0.3002 0.2205,0.6307 0.2205,0.9915 0,0.617 -0.1969,1.141 -0.5917,1.5683 -0.3937,0.429 -1.107,0.6423 -2.1381,0.6423 h -1.868 v 2.9701 z m 0.9662,-3.8241 h 1.8818 c 0.6236,0 1.0646,-0.1155 1.3275,-0.3475 0.2612,-0.2327 0.3915,-0.5582 0.3915,-0.98 0,-0.3035 -0.0764,-0.5648 -0.2304,-0.7814 -0.1545,-0.2172 -0.358,-0.3613 -0.6088,-0.4306 -0.1627,-0.0423 -0.463,-0.0643 -0.8985,-0.0643 h -1.8631 z m 5.696,3.8241 v -5.2786 h 0.8034 v 0.8084 c 0.2051,-0.3745 0.3954,-0.622 0.5697,-0.7408 0.1749,-0.1204 0.3663,-0.1798 0.5747,-0.1798 0.3019,0 0.6088,0.0951 0.9206,0.2832 l -0.3184,0.8254 c -0.2173,-0.1221 -0.4345,-0.1831 -0.6511,-0.1831 -0.1953,0 -0.3696,0.0594 -0.5241,0.1765 -0.154,0.1172 -0.2645,0.2794 -0.3305,0.4884 -0.1001,0.3167 -0.149,0.6643 -0.149,1.0426 v 2.7578 z m 3.0614,-2.6396 c 0,-0.9744 0.2716,-1.6965 0.8155,-2.1661 0.4526,-0.3899 1.0069,-0.5851 1.6597,-0.5851 0.7237,0 1.317,0.2376 1.7784,0.7121 0.4592,0.473 0.6896,1.129 0.6896,1.9649 0,0.678 -0.1017,1.2104 -0.3047,1.5986 -0.2034,0.3882 -0.5004,0.6896 -0.8903,0.9052 -0.3882,0.215 -0.8139,0.3217 -1.273,0.3217 -0.7391,0 -1.3358,-0.2354 -1.7917,-0.7083 -0.4564,-0.473 -0.6835,-1.1543 -0.6835,-2.043 z m 0.9156,0.002 c 0,0.6747 0.1474,1.1801 0.4427,1.5139 0.2964,0.336 0.6676,0.5037 1.1169,0.5037 0.4443,0 0.8138,-0.1677 1.1102,-0.5053 0.2954,-0.3371 0.4427,-0.8508 0.4427,-1.5409 0,-0.6511 -0.149,-1.1444 -0.446,-1.4782 -0.2964,-0.3354 -0.6659,-0.5037 -1.1069,-0.5037 -0.4493,0 -0.8205,0.1661 -1.1169,0.5004 -0.2953,0.3338 -0.4427,0.8375 -0.4427,1.5101 z m 8.48469953,2.6379 v -0.6698 c -0.3338,0.5208 -0.82550003,0.7815 -1.47490003,0.7815 -0.4207,0 -0.8067,-0.115 -1.1576,-0.347 -0.353,-0.231 -0.6258,-0.5549 -0.8204995,-0.9684 -0.1935,-0.4152 -0.2903,-0.8914 -0.2903,-1.4304 0,-0.5257 0.0885,-1.0019 0.2628,-1.4309 0.1765995,-0.4272 0.4393995,-0.7561 0.7902995,-0.9832 0.3492,-0.2288 0.7424,-0.3426 1.1746,-0.3426 0.3189,0 0.6016,0.0676 0.8491,0.2018 0.2474,0.1336 0.44920003,0.3102 0.60540003,0.5257 v -2.6192 h 0.8953 v 7.2825 z m -2.82770003,-2.6324 c 0,0.6747 0.1424,1.1779 0.4289,1.5117 0.2849,0.3344 0.622,0.5004 1.0102,0.5004 0.3916,0 0.7237,-0.1594 0.9987,-0.4784 0.27270003,-0.3184 0.41020003,-0.8051 0.41020003,-1.4595 0,-0.7187 -0.1391,-1.2477 -0.41900003,-1.5848 -0.2777,-0.3371 -0.622,-0.5054 -1.0306,-0.5054 -0.3981,0 -0.7303,0.1611 -0.9981,0.485 -0.2661,0.3239 -0.4003,0.8342 -0.4003,1.531 z m 8.5254001,2.6324 v -0.7847 c -0.4103,0.5983 -0.9662,0.8964 -1.6701,0.8964 -0.3102,0 -0.6,-0.0589 -0.8695,-0.1777 -0.2694,-0.1204 -0.4696,-0.2694 -0.5999,-0.4492 -0.1309,-0.1815 -0.2222,-0.402 -0.275,-0.6627 -0.0352,-0.1765 -0.0539,-0.4548 -0.0539,-0.8342 v -3.2665 h 0.8947 v 2.9206 c 0,0.4663 0.0187,0.7814 0.0545,0.9425 0.0561,0.2354 0.1749,0.4185 0.3574,0.5527 0.1815,0.1336 0.4053,0.2018 0.6731,0.2018 0.2678,0 0.5192,-0.0682 0.7529,-0.2051 0.2337,-0.1375 0.4003,-0.3255 0.4982,-0.5615 0.0968,-0.2353 0.1457,-0.5796 0.1457,-1.0288 v -2.8222 h 0.8953 v 5.2786 z m 5.6569004,-1.9324 0.875,0.1221 c -0.0968,0.6016 -0.341,1.0712 -0.7358,1.4122 -0.3954,0.3404 -0.8815005,0.5098 -1.4562005,0.5098 -0.7204,0 -1.3006,-0.2354 -1.7377,-0.7067 -0.4389,-0.4713 -0.6576999,-1.146 -0.6576999,-2.0242 0,-0.5692 0.0945,-1.0663 0.2831999,-1.4936 0.188,-0.4251 0.4745,-0.7457 0.8611,-0.9574 0.3844,-0.2139 0.8035,-0.3206 1.2577,-0.3206 0.5714,0 1.0410005,0.1441 1.4034005,0.4339 0.3646,0.2898 0.5988,0.7022 0.7006,1.234 l -0.865,0.1325 c -0.0831,-0.3541 -0.2288,-0.6203 -0.4405,-0.8001 -0.2101005,-0.1782 -0.4647005,-0.2678 -0.7628005,-0.2678 -0.4509,0 -0.8171,0.1611 -1.1003,0.4828 -0.2816,0.3239 -0.4224,0.8326 -0.4224,1.531 0,0.7088 0.1359,1.2224 0.407,1.5425 0.2733,0.3206 0.6274,0.4817 1.0629,0.4817 0.3525,0 0.6462005,-0.1067 0.8799005,-0.3222 0.2359,-0.2134 0.385,-0.5439 0.4476,-0.9899 z m 3.58,1.134 0.1221,0.7902 c -0.2508,0.0522 -0.4762,0.0792 -0.6726,0.0792 -0.3239,0 -0.5746,-0.0506 -0.7544,-0.154 -0.1782,-0.1034 -0.3036,-0.2376 -0.3767,-0.4053 -0.0726,-0.1677 -0.1084,-0.5202 -0.1084,-1.0575 v -3.0416 h -0.661 v -0.6912 h 0.661 v -1.3055 l 0.8953,-0.5373 v 1.8428 h 0.8947 v 0.6912 h -0.8947 v 3.0922 c 0,0.2563 0.0154,0.4207 0.0473,0.4933 0.0308,0.0731 0.0814,0.1309 0.1529,0.1749 0.0709,0.0423 0.1726,0.0643 0.3046,0.0643 0.0985,0 0.2293,-0.0121 0.3899,-0.0357 z m 0.8837,-5.4673 v -1.0168 h 0.8947 v 1.0168 z m 0,6.2657 v -5.2786 h 0.8947 v 5.2786 z m 1.9236,-2.6396 c 0,-0.9744 0.2717,-1.6965 0.8156,-2.1661 0.4525,-0.3899 1.0069,-0.5851 1.6596,-0.5851 0.7237,0 1.3171,0.2376 1.7784,0.7121 0.4592,0.473 0.6896,1.129 0.6896,1.9649 0,0.678 -0.1017,1.2104 -0.3046,1.5986 -0.2035,0.3882 -0.5004,0.6896 -0.8903,0.9052 -0.3883,0.215 -0.8139,0.3217 -1.2731,0.3217 -0.7391,0 -1.3357,-0.2354 -1.7916,-0.7083 -0.4565,-0.473 -0.6836,-1.1543 -0.6836,-2.043 z m 0.9156,0.002 c 0,0.6747 0.1474,1.1801 0.4427,1.5139 0.2964,0.336 0.6676,0.5037 1.1169,0.5037 0.4443,0 0.8139,-0.1677 1.1103,-0.5053 0.2953,-0.3371 0.4427,-0.8508 0.4427,-1.5409 0,-0.6511 -0.1491,-1.1444 -0.446,-1.4782 -0.2964,-0.3354 -0.666,-0.5037 -1.107,-0.5037 -0.4493,0 -0.8205,0.1661 -1.1169,0.5004 -0.2953,0.3338 -0.4427,0.8375 -0.4427,1.5101 z m 5.0774,2.6379 v -5.2786 h 0.8035 v 0.749 c 0.3865,-0.5747 0.9458,-0.8612 1.6767,-0.8612 0.3184,0 0.6098,0.0577 0.876,0.171 0.2661,0.1139 0.4663,0.2645 0.5988,0.4493 0.132,0.1848 0.2255,0.4053 0.2777,0.6599 0.0325,0.1661 0.0495,0.4559 0.0495,0.8694 v 3.2412 h -0.8952 v -3.2071 c 0,-0.3646 -0.0341,-0.6373 -0.1034,-0.8172 -0.0699,-0.1798 -0.1936,-0.3239 -0.3696,-0.4322 -0.1765,-0.1072 -0.3849,-0.1611 -0.6219,-0.1611 -0.38,0 -0.7072,0.1204 -0.9833,0.3629 -0.2766,0.2403 -0.4141,0.7001 -0.4141,1.3748 v 2.8799 z m 5.3007,-1.5766 0.8853,-0.1424 c 0.049,0.3541 0.1881,0.6258 0.4152,0.8155 0.2271,0.1881 0.5455,0.2832 0.9525,0.2832 0.4119,0 0.7171,-0.083 0.9172,-0.2507 0.1986,-0.1667 0.2986,-0.363 0.2986,-0.5884 0,-0.2019 -0.0901,-0.3613 -0.2683,-0.4763 -0.1254,-0.0797 -0.4306,-0.1798 -0.9151,-0.3035 -0.6544,-0.1645 -1.107,-0.3069 -1.3616,-0.4273 -0.2524,-0.1221 -0.4437,-0.2882 -0.5746,-0.5021 -0.1304,-0.2117 -0.1963,-0.4471 -0.1963,-0.705 0,-0.2353 0.0538,-0.4526 0.1611,-0.6527 0.1083,-0.1997 0.254,-0.3663 0.4388,-0.4983 0.1391,-0.1017 0.3289,-0.188 0.5681,-0.2595 0.2408,-0.071 0.4965,-0.1067 0.771,-0.1067 0.414,0 0.7764,0.0594 1.0882,0.1798 0.314,0.1188 0.5445,0.2816 0.6935,0.485 0.1474,0.2052 0.2513,0.4779 0.3068,0.8205 l -0.8743,0.1216 c -0.0391,-0.2745 -0.1546,-0.4895 -0.3443,-0.644 -0.1897,-0.154 -0.4581,-0.2304 -0.8051,-0.2304 -0.4085,0 -0.7022,0.0676 -0.8765,0.2035 -0.1749,0.1352 -0.2629,0.2947 -0.2629,0.4762 0,0.1155 0.0358,0.2205 0.1084,0.3134 0.0731,0.0952 0.1864,0.1749 0.3426,0.2376 0.0896,0.0341 0.3508,0.11 0.788,0.2288 0.6307,0.1677 1.0718,0.3068 1.3225,0.4135 0.2508,0.1067 0.4477,0.2645 0.5901,0.468 0.1441,0.2051 0.215,0.4592 0.215,0.7644 0,0.2969 -0.0863,0.5763 -0.2612,0.8391 -0.1743,0.2629 -0.4251,0.4664 -0.7523,0.6104 -0.3288,0.1441 -0.7,0.2151 -1.1141,0.2151 -0.6847,0 -1.2087,-0.1419 -1.5678,-0.4251 -0.3597,-0.2849 -0.5884,-0.7056 -0.6885,-1.2632 z"
         style="fill:#000000;fill-rule:evenodd"
         id="path3748"
         inkscape:connector-curvature="0" />
      <path
         d="m -143.09471,-215.39557 c 0,6.3307 5.0125,10.9027 12.2302,10.9027 7.2182,0 12.2301,-4.572 12.2301,-10.9027 0,-6.3311 -5.0119,-10.9032 -12.2301,-10.9032 -7.2177,0 -12.2302,4.5721 -12.2302,10.9032 z m 2.2057,0 c 0,-5.1587 3.8423,-9.1445 10.0245,-9.1445 6.1816,0 10.0249,3.9858 10.0249,9.1445 0,5.1583 -3.8433,9.1441 -10.0249,9.1441 -6.1822,0 -10.0245,-3.9858 -10.0245,-9.1441 z m 27.2006,10.3753 h 2.2057 v -18.172 h 0.066 l 14.4028,18.172 h 2.8398 v -20.7511 h -2.2057 v 18.172 h -0.066 l -14.4029,-18.172 h -2.8397 z m 22.922702,0 h 2.3058 l 2.6731,-5.5101 h 12.531 l 2.5731,5.5101 h 2.4729 l -9.9579,-20.7511 h -2.2722 z m 16.7076,-7.2688 h -10.8592 l 5.5134,-11.3723 z m 9.2562,7.2688 h 13.2326 v -1.7586 h -11.0269 v -18.9925 h -2.2057 z m 16.4067,0 h 7.3183 c 12.2967,0 12.7982,-8.8514 12.7982,-10.3753 0,-1.5243 -0.5015,-10.3758 -12.7982,-10.3758 h -7.3183 z m 2.2058,-18.9925 h 4.5445 c 6.2817,0 11.1611,2.6671 11.1611,8.6172 0,5.9496 -4.8794,8.6167 -11.1611,8.6167 h -4.5445 z m 21.3191,8.6172 c 0,6.3307 5.0125,10.9027 12.2302,10.9027 7.2182,0 12.22959953,-4.572 12.22959953,-10.9027 0,-6.3311 -5.01139953,-10.9032 -12.22959953,-10.9032 -7.2177,0 -12.2302,4.5721 -12.2302,10.9032 z m 2.2057,0 c 0,-5.1587 3.8423,-9.1445 10.0245,-9.1445 6.1816,0 10.0249995,3.9858 10.0249995,9.1445 0,5.1583 -3.8433995,9.1441 -10.0249995,9.1441 -6.1822,0 -10.0245,-3.9858 -10.0245,-9.1441 z"
         style="fill:#000000;fill-rule:evenodd"
         id="path3750"
         inkscape:connector-curvature="0" />
      <path
         d="m -144.21161,-128.33597 c 26.88,0 36.7229,-23.289 36.7229,-38.7488 0,-21.4061 -13.5345,-33.7941 -31.4222,-33.7941 -22.81,0 -37.6693,17.8382 -37.6693,39.8393 0,17.4417 11.7358,32.7036 32.3686,32.7036 z m 0.8519,-7.3332 c -14.8593,0 -24.1348,-12.091 -24.1348,-26.8568 0,-16.9468 10.317,-31.0192 27.2583,-31.0192 12.3984,0 23.5667,9.2166 23.5667,26.9559 0,19.5231 -12.493,30.9201 -26.6902,30.9201 z"
         style="fill:#000000;fill-rule:evenodd"
         id="path3752"
         inkscape:connector-curvature="0" />
      <path
         d="m 400.31405,-252.99762 c 22.8084,0.198 26.7903,6.8377 26.7903,11.2975 0,9.7121 -12.0679,15.7573 -18.1011,18.4332 3.6201,4.1623 30.7717,33.3975 32.0998,34.785 l 9.1715,-6.0453 c -3.3792,-2.9734 -25.101,-25.0729 -28.1178,-28.4428 9.8958,-5.1532 16.7741,-11.6939 16.7741,-20.1176 0,-8.4236 -9.0505,-13.9733 -24.9794,-15.5593 -9.2925,-0.892 -19.4297,-0.991 -25.101,-0.991 0.3619,1.883 0.6033,22.3976 0.6033,25.3705 v 8.1266 c 0,2.0809 0.2414,33.4966 -0.2414,35.875 h 11.7055 c -0.2414,-1.4865 -0.6038,-26.5594 -0.6038,-30.3252 z"
         style="fill:#000000;fill-rule:evenodd"
         id="path3754"
         inkscape:connector-curvature="0" />
      <path
         d="m 439.78375,-139.18353 c 26.88,0 36.7229,-23.28899 36.7229,-38.74879 0,-21.4061 -13.5345,-33.7941 -31.4222,-33.7941 -22.81,0 -37.6693,17.8382 -37.6693,39.8393 0,17.44169 11.7358,32.70359 32.3686,32.70359 z m 0.8519,-7.3332 c -14.8593,0 -24.1348,-12.09099 -24.1348,-26.85679 0,-16.9468 10.317,-31.0192 27.2583,-31.0192 12.3984,0 23.5667,9.2166 23.5667,26.9559 0,19.5231 -12.493,30.92009 -26.6902,30.92009 z"
         style="fill:#000000;fill-rule:evenodd"
         id="path3756"
         inkscape:connector-curvature="0" />
      <path
         d="M 24.691523,124.30697 H -126.48938 v 1.5717 H 24.691523 Z"
         style="fill:#000000;fill-opacity:0;fill-rule:evenodd"
         id="path3803"
         inkscape:connector-curvature="0" />
      <path
         d="m -179.49038,93.67087 c 22.8084,0.198 26.7903,6.8377 26.7903,11.2975 0,9.7121 -12.0679,15.7573 -18.1011,18.4332 3.6201,4.1623 30.7717,33.3975 32.0998,34.785 l 9.1715,-6.0453 c -3.3792,-2.9734 -25.101,-25.0729 -28.1178,-28.4428 9.8958,-5.1532 16.7741,-11.6939 16.7741,-20.1176 0,-8.4236 -9.0505,-13.9733 -24.9794,-15.5593 -9.2925,-0.892 -19.4297,-0.991 -25.101,-0.991 0.3619,1.883 0.6033,22.3976 0.6033,25.3705 v 8.1266 c 0,2.0809 0.2414,33.4966 -0.2414,35.875 h 11.7055 c -0.2414,-1.4865 -0.6038,-26.5594 -0.6038,-30.3252 z"
         style="fill:#000000;fill-rule:evenodd"
         id="path3805"
         inkscape:connector-curvature="0" />
      <path
         inkscape:connector-curvature="0"
         id="path3809"
         style="fill:#000000;fill-rule:evenodd"
         d="m -130.86732,104.60238 c 0,6.3307 5.0125,10.9027 12.2302,10.9027 7.2182,0 12.23011,-4.572 12.23011,-10.9027 0,-6.3311 -5.01191,-10.9032 -12.23011,-10.9032 -7.2177,0 -12.2302,4.5721 -12.2302,10.9032 z m 2.2057,0 c 0,-5.1587 3.8423,-9.1445 10.0245,-9.1445 6.1816,0 10.02491,3.9858 10.02491,9.1445 0,5.1583 -3.84331,9.1441 -10.02491,9.1441 -6.1822,0 -10.0245,-3.9858 -10.0245,-9.1441 z m 27.2006,10.3753 h 2.205703 v -18.172 h 0.066 l 14.4028,18.172 h 2.8398 v -20.7511 h -2.2057 v 18.172 h -0.066 l -14.4029,-18.172 h -2.839703 z m 22.922703,0 h 2.3058 l 2.6731,-5.5101 h 12.531 l 2.5731,5.5101 h 2.4729 l -9.9579,-20.7511 h -2.2722 z m 16.7076,-7.2688 h -10.8592 l 5.5134,-11.3723 z m 9.2562,7.2688 h 13.232601 v -1.7586 h -11.0269 v -18.9925 h -2.205701 z m 16.406701,0 h 7.318299 c 12.2967,0 12.7982,-8.8514 12.7982,-10.3753 0,-1.5243 -0.5015,-10.3758 -12.7982,-10.3758 h -7.318299 z m 2.2058,-18.9925 h 4.544499 c 6.2817,0 11.1611,2.6671 11.1611,8.6172 0,5.9496 -4.8794,8.6167 -11.1611,8.6167 h -4.544499 z m 21.319099,8.6172 c 0,6.3307 5.0125003,10.9027 12.23020026,10.9027 7.21820004,0 12.22959974,-4.572 12.22959974,-10.9027 0,-6.3311 -5.0113997,-10.9032 -12.22959974,-10.9032 -7.21769996,0 -12.23020026,4.5721 -12.23020026,10.9032 z m 2.2057,0 c 0,-5.1587 3.8423003,-9.1445 10.02450026,-9.1445 6.18160004,0 10.02500004,3.9858 10.02500004,9.1445 0,5.1583 -3.8434,9.1441 -10.02500004,9.1441 -6.18219996,0 -10.02450026,-3.9858 -10.02450026,-9.1441 z" />
      <path
         inkscape:connector-curvature="0"
         id="path3811"
         style="fill:#000000;fill-rule:evenodd"
         d="m -99.501447,148.14886 h 13.2321 v -1.7586 h -11.0264 v -18.9925 h -2.2057 z m 16.7075,0 h 2.2058 v -20.7511 h -2.2058 z m 14.16809,0 h 2.2046 l 8.9895,-20.7511 h -2.3393 l -7.68569,18.2011 -7.6185,-18.2011 h -2.3724 z m 14.3352,0 h 15.003401 v -1.7586 h -12.797701 v -8.0893 h 11.494401 v -1.7587 h -11.494401 v -7.3859 h 12.263201 v -1.7586 h -14.468901 z m 19.815701,0 h 2.2058 v -20.7511 h -2.2058 z m 10.893299,-18.9925 h 4.6776 c 4.6452,0 5.5476,2.2569 5.5476,3.6927 0,1.4364 -0.9024,3.6932 -5.5476,3.6932 h -4.6776 z m -2.2057,18.9925 h 2.2057 v -9.8479 h 4.1096 l 6.6501,9.8479 h 2.506 l -6.8839,-9.9651 c 2.6066,-0.2931 6.048,-1.3775 6.048,-5.3347 0,-5.4513 -6.549,-5.4513 -8.4203,-5.4513 h -6.2152 z m 16.7411003,0 h 2.3058 l 2.6732,-5.5102 h 12.5309 l 2.5730997,5.5102 h 2.473 l -9.9578997,-20.7511 h -2.2723 z m 16.7076,-7.2688 h -10.8597 l 5.5134,-11.3723 z" />
      <path
         inkscape:connector-curvature="0"
         id="path3813"
         style="fill:#000000;fill-rule:evenodd;stroke-width:0.87501609"
         d="m -103.40885,161.40945 v -6.3723 h 1.26405 l 1.50704,4.51062 c 0.13913,0.42009 0.2401,0.73431 0.30415,0.94361 0.0726,-0.23144 0.18665,-0.57261 0.341168,-1.02201 l 1.53356,-4.43222 h 1.12885 v 6.3723 h -0.80982 v -5.33103 l -1.860288,5.33103 h -0.75934 l -1.83954,-5.42921 v 5.42921 z m 7.039678,-2.30969 c 0,-0.85261 0.23774,-1.48446 0.71366,-1.89537 0.39603,-0.34117 0.88106,-0.51197 1.45218,-0.51197 0.63325,0 1.15248,0.2079 1.55622,0.6231 0.40172,0.41388 0.60332,0.98789 0.60332,1.71931 0,0.59326 -0.089,1.05912 -0.26653,1.3988 -0.17807,0.33969 -0.43786,0.60342 -0.77903,0.79207 -0.33977,0.18813 -0.71217,0.28149 -1.11398,0.28149 -0.64672,0 -1.16876,-0.20598 -1.56768,-0.61977 -0.39936,-0.41389 -0.59816,-1.01003 -0.59816,-1.78766 z m 0.80125,0.002 c 0,0.59037 0.12889,1.03261 0.38728,1.32469 0.25936,0.294 0.58416,0.44074 0.97731,0.44074 0.38886,0 0.71218,-0.14674 0.97153,-0.44214 0.25839,-0.29497 0.38737,-0.74447 0.38737,-1.34832 0,-0.56971 -0.13038,-1.00136 -0.39026,-1.29344 -0.25935,-0.29348 -0.58267,-0.44075 -0.96864,-0.44075 -0.39315,0 -0.71795,0.14534 -0.97731,0.43786 -0.25839,0.29208 -0.38728,0.73283 -0.38728,1.32136 z m 7.42416,2.3082 v -0.58608 c -0.29208,0.45571 -0.72223,0.68382 -1.29056,0.68382 -0.36803,0 -0.70587,-0.10062 -1.01283,-0.30363 -0.30897,-0.20213 -0.54758,-0.48554 -0.71795,-0.84736 -0.1694,-0.36331 -0.2541,-0.77999 -0.2541,-1.25163 0,-0.45999 0.0775,-0.87667 0.23004,-1.25205 0.15444,-0.37381 0.38448,-0.6616 0.69144,-0.86032 0.30555,-0.2002 0.64961,-0.29978 1.02788,-0.29978 0.27904,0 0.52641,0.0592 0.74289,0.17658 0.21656,0.1169 0.39314,0.27143 0.52982,0.46 v -2.2921 h 0.78331 v 6.3723 z m -2.47419,-2.30339 c 0,0.59038 0.1246,1.03068 0.37529,1.32276 0.24921,0.29261 0.54417,0.43786 0.88394,0.43786 0.34257,0 0.63325,-0.13948 0.87379,-0.41861 0.23871,-0.2786 0.35902,-0.70447 0.35902,-1.27708 0,-0.62887 -0.1218,-1.09176 -0.36672,-1.38672 -0.24299,-0.29497 -0.54417,-0.44224 -0.9017,-0.44224 -0.34834,0 -0.63902,0.14097 -0.87335,0.42439 -0.23293,0.28341 -0.35027,0.72994 -0.35027,1.33964 z m 7.59304,0.80834 0.80983,0.10684 c -0.12601,0.47015 -0.36182,0.83634 -0.70588,1.09613 -0.34406,0.25936 -0.78331,0.38982 -1.31847,0.38982 -0.67359,0 -1.2077,-0.20738 -1.60233,-0.62266 -0.39455,-0.41388 -0.59187,-0.99708 -0.59187,-1.74627 0,-0.77421 0.19872,-1.37613 0.59817,-1.80349 0.39892,-0.42867 0.91666,-0.64235 1.5528,-0.64235 0.61592,0 1.11871,0.20931 1.50844,0.62888 0.39026,0.42009 0.58609,1.01003 0.58609,1.77129 0,0.0457 -0.002,0.1155 -0.004,0.20738 h -3.44004 c 0.0298,0.50619 0.17229,0.89452 0.43025,1.16298 0.25646,0.26854 0.57838,0.40373 0.96278,0.40373 0.2863,0 0.53078,-0.0755 0.73239,-0.22706 0.20352,-0.15112 0.36383,-0.39315 0.48213,-0.72522 z m -2.56327,-1.25486 h 2.57246 c -0.0342,-0.38885 -0.13379,-0.67944 -0.2955,-0.87387 -0.24728,-0.30118 -0.57068,-0.4523 -0.96715,-0.4523 -0.35893,0 -0.65968,0.12032 -0.90459,0.36042 -0.24352,0.2401 -0.37827,0.56202 -0.40522,0.96575 z m 4.34515,2.74991 v -6.3723 h 0.78288 v 6.3723 z m 1.68318,-1.37955 0.77474,-0.1246 c 0.0428,0.30984 0.1645,0.54759 0.36322,0.71358 0.1988,0.16459 0.47741,0.2478 0.83345,0.2478 0.36042,0 0.62748,-0.0726 0.80265,-0.21936 0.1737,-0.14587 0.26128,-0.31764 0.26128,-0.51486 0,-0.17667 -0.0789,-0.31615 -0.23485,-0.41677 -0.10973,-0.0697 -0.37678,-0.15733 -0.80073,-0.26557 -0.57261,-0.14394 -0.96855,-0.26854 -1.19133,-0.3739 -0.22094,-0.10683 -0.38833,-0.25217 -0.50287,-0.43934 -0.11402,-0.18524 -0.17177,-0.39122 -0.17177,-0.61688 0,-0.20589 0.0472,-0.39604 0.14097,-0.57113 0.0948,-0.17474 0.22234,-0.32052 0.38395,-0.43602 0.12181,-0.089 0.2878,-0.1645 0.4971,-0.22706 0.21079,-0.0621 0.43453,-0.0934 0.67464,-0.0934 0.36234,0 0.67945,0.052 0.95228,0.15732 0.27475,0.10396 0.47636,0.24641 0.60673,0.42439 0.12898,0.17955 0.2199,0.41817 0.26855,0.71795 l -0.76512,0.1064 c -0.0342,-0.24019 -0.13519,-0.42832 -0.30127,-0.56351 -0.16599,-0.13475 -0.40075,-0.2016 -0.70438,-0.2016 -0.35754,0 -0.61453,0.0592 -0.76704,0.17806 -0.15304,0.1183 -0.23004,0.25787 -0.23004,0.41668 0,0.10107 0.0313,0.19295 0.0948,0.27423 0.064,0.0833 0.1631,0.15305 0.29978,0.20791 0.0784,0.0298 0.30695,0.0962 0.68951,0.2002 0.55196,0.14674 0.93784,0.26846 1.15721,0.36182 0.21945,0.0934 0.39174,0.23144 0.51635,0.40951 0.12609,0.17947 0.18812,0.40181 0.18812,0.66886 0,0.25979 -0.0755,0.50427 -0.22855,0.73423 -0.15252,0.23004 -0.37197,0.40811 -0.65827,0.53411 -0.28771,0.12609 -0.61252,0.18821 -0.97486,0.18821 -0.59904,0 -1.05763,-0.12416 -1.37185,-0.37197 -0.31474,-0.2493 -0.51486,-0.61742 -0.60245,-1.10533 z m 4.96633,1.37955 v -0.89015 h 0.89015 v 0.89015 c 0,0.3277 -0.0577,0.59335 -0.17509,0.79496 -0.1155,0.20213 -0.30126,0.35893 -0.55484,0.46866 l -0.21368,-0.33776 c 0.16607,-0.0727 0.28779,-0.17947 0.36523,-0.31903 0.0785,-0.14097 0.12276,-0.34266 0.13186,-0.60683 z m 4.56303,-2.04692 0.79207,-0.0712 c 0.037,0.32043 0.1246,0.58268 0.26277,0.78918 0.13755,0.20449 0.35123,0.37092 0.64042,0.4985 0.28919,0.12609 0.61592,0.18953 0.97774,0.18953 0.32192,0 0.60534,-0.0471 0.85122,-0.14386 0.2464,-0.0962 0.42876,-0.22803 0.54907,-0.39603 0.12032,-0.16739 0.18096,-0.34983 0.18096,-0.54566 0,-0.19872 -0.0578,-0.37241 -0.17378,-0.52203 -0.11542,-0.14875 -0.30696,-0.27336 -0.57401,-0.37538 -0.17037,-0.0654 -0.54855,-0.16932 -1.13464,-0.31037 -0.58608,-0.14044 -0.99507,-0.27283 -1.22992,-0.39743 -0.30363,-0.16022 -0.5293,-0.35893 -0.67752,-0.59475 -0.15016,-0.23573 -0.22418,-0.50139 -0.22418,-0.79347 0,-0.32331 0.0919,-0.62458 0.27475,-0.90319 0.18235,-0.28053 0.44748,-0.49272 0.79924,-0.63806 0.35027,-0.14534 0.74,-0.21797 1.16876,-0.21797 0.47155,0 0.88875,0.0755 1.24917,0.22856 0.36042,0.15111 0.63754,0.37529 0.83197,0.67175 0.19443,0.2954 0.29838,0.63036 0.31325,1.00425 l -0.81035,0.0626 c -0.0428,-0.40233 -0.18953,-0.7064 -0.44022,-0.91089 -0.25069,-0.20641 -0.6217,-0.30844 -1.11109,-0.30844 -0.51005,0 -0.88246,0.0934 -1.11539,0.28 -0.23293,0.18717 -0.35027,0.4124 -0.35027,0.67657 0,0.22855 0.0832,0.41668 0.24781,0.56491 0.1631,0.14726 0.58608,0.29978 1.27122,0.45422 0.68523,0.15549 1.15537,0.29068 1.41088,0.40618 0.36908,0.1708 0.64331,0.38588 0.81998,0.64812 0.17657,0.26128 0.26416,0.56255 0.26416,0.90363 0,0.33977 -0.0963,0.65688 -0.29068,0.95666 -0.19434,0.29978 -0.47154,0.53262 -0.83529,0.6987 -0.3633,0.16599 -0.77141,0.2492 -1.2266,0.2492 -0.57549,0 -1.05763,-0.0847 -1.4464,-0.25209 -0.38982,-0.16748 -0.69389,-0.41966 -0.91526,-0.75794 -0.22226,-0.33679 -0.33829,-0.71786 -0.34984,-1.14373 z m 9.1315,0.35604 0.76555,0.10684 c -0.0847,0.52641 -0.29829,0.93732 -0.64384,1.2357 -0.34589,0.29786 -0.77132,0.44608 -1.27411,0.44608 -0.63036,0 -1.13804,-0.20598 -1.5206,-0.61837 -0.38396,-0.4124 -0.5755,-1.00277 -0.5755,-1.77121 0,-0.49805 0.0828,-0.93302 0.2478,-1.30692 0.1646,-0.37197 0.41529,-0.6525 0.75357,-0.83774 0.33635,-0.18716 0.70299,-0.28053 1.10051,-0.28053 0.49989,0 0.91089,0.12609 1.22799,0.37967 0.31895,0.25358 0.52396,0.61444 0.61295,1.07977 l -0.75689,0.11594 c -0.0726,-0.30984 -0.20011,-0.54277 -0.38544,-0.7001 -0.18375,-0.15593 -0.40653,-0.23433 -0.66738,-0.23433 -0.39454,0 -0.71506,0.14097 -0.96286,0.42246 -0.24632,0.28342 -0.36952,0.72854 -0.36952,1.33964 0,0.62022 0.11882,1.06962 0.35604,1.34972 0.23914,0.28053 0.54907,0.42149 0.93014,0.42149 0.30845,0 0.56544,-0.0934 0.76993,-0.28193 0.20642,-0.18673 0.33679,-0.47592 0.39166,-0.86618 z m 1.43301,1.69088 v -6.3723 h 0.78288 v 2.29333 c 0.36374,-0.42587 0.82181,-0.63806 1.37666,-0.63806 0.33968,0 0.63465,0.0669 0.88727,0.20161 0.25069,0.13519 0.43024,0.32051 0.53848,0.55773 0.10824,0.23766 0.16171,0.5832 0.16171,1.03401 v 2.92368 h -0.78341 v -2.9208 c 0,-0.39016 -0.0847,-0.67454 -0.25218,-0.85261 -0.16931,-0.17807 -0.40653,-0.26706 -0.71497,-0.26706 -0.23004,0 -0.44661,0.0592 -0.64961,0.17947 -0.20353,0.12031 -0.34747,0.28342 -0.43454,0.4894 -0.0861,0.20493 -0.12941,0.4879 -0.12941,0.84972 v 2.52188 z m 4.65596,-2.30969 c 0,-0.85261 0.23766,-1.48446 0.71358,-1.89537 0.39603,-0.34116 0.88105,-0.51197 1.45217,-0.51197 0.63325,0 1.152491,0.20791 1.556221,0.6231 0.40172,0.41388 0.60341,0.98789 0.60341,1.71932 0,0.59326 -0.0891,1.05912 -0.26662,1.3988 -0.17806,0.33968 -0.43785,0.60341 -0.77902,0.79206 -0.339681,0.18813 -0.712181,0.28149 -1.113991,0.28149 -0.64672,0 -1.16875,-0.20598 -1.56767,-0.61977 -0.39936,-0.41388 -0.59808,-1.01003 -0.59808,-1.78766 z m 0.80117,0.002 c 0,0.59038 0.12897,1.03261 0.38737,1.32469 0.25935,0.294 0.58416,0.44074 0.97721,0.44074 0.38886,0 0.71218,-0.14674 0.971531,-0.44214 0.2584,-0.29497 0.38737,-0.74446 0.38737,-1.34831 0,-0.56972 -0.13037,-1.00137 -0.390251,-1.29345 -0.25936,-0.29348 -0.58268,-0.44074 -0.96865,-0.44074 -0.39305,0 -0.71786,0.14534 -0.97721,0.43785 -0.2584,0.29208 -0.38737,0.73283 -0.38737,1.32136 z m 4.148801,-0.002 c 0,-0.85261 0.23765,-1.48446 0.71357,-1.89537 0.39604,-0.34116 0.88106,-0.51197 1.45218,-0.51197 0.63325,0 1.15248,0.20791 1.55622,0.6231 0.40172,0.41388 0.60341,0.98789 0.60341,1.71932 0,0.59326 -0.0891,1.05912 -0.26662,1.3988 -0.17807,0.33968 -0.43786,0.60341 -0.77903,0.79206 -0.33977,0.18813 -0.71217,0.28149 -1.11398,0.28149 -0.64672,0 -1.16876,-0.20598 -1.56768,-0.61977 -0.39936,-0.41388 -0.59807,-1.01003 -0.59807,-1.78766 z m 0.80116,0.002 c 0,0.59038 0.12889,1.03261 0.38737,1.32469 0.25936,0.294 0.58408,0.44074 0.97722,0.44074 0.38886,0 0.71218,-0.14674 0.97153,-0.44214 0.25839,-0.29497 0.38737,-0.74446 0.38737,-1.34831 0,-0.56972 -0.13038,-1.00137 -0.39026,-1.29345 -0.25935,-0.29348 -0.58267,-0.44074 -0.96864,-0.44074 -0.39314,0 -0.71786,0.14534 -0.97722,0.43785 -0.25848,0.29208 -0.38737,0.73283 -0.38737,1.32136 z m 4.42496,2.30821 v -6.3723 h 0.78288 v 6.3723 z m 8.11376,-0.75637 c -0.25795,0.28482 -0.53988,0.4985 -0.84404,0.64095 -0.30407,0.14193 -0.63316,0.21316 -0.98781,0.21316 -0.65302,0 -1.17024,-0.21946 -1.55332,-0.65828 -0.30985,-0.35902 -0.46577,-0.75785 -0.46577,-1.20008 0,-0.39315 0.12608,-0.74779 0.37966,-1.06341 0.25411,-0.31763 0.63369,-0.59527 1.13656,-0.83537 -0.28919,-0.3291 -0.48213,-0.59764 -0.57838,-0.80406 -0.0967,-0.20449 -0.14578,-0.4032 -0.14578,-0.59474 0,-0.38256 0.15015,-0.71507 0.45133,-0.99656 0.29926,-0.28342 0.67753,-0.42438 1.13464,-0.42438 0.43453,0 0.79206,0.13326 1.06918,0.40032 0.27764,0.26705 0.41572,0.58897 0.41572,0.96286 0,0.60683 -0.40365,1.12598 -1.21207,1.55473 l 1.15388,1.44736 c 0.1323,-0.25498 0.23433,-0.54994 0.30704,-0.88673 l 0.81027,0.17509 c -0.13957,0.55432 -0.32813,1.00854 -0.56684,1.36274 0.29208,0.38737 0.62459,0.71218 0.99367,0.97635 l -0.52501,0.61977 c -0.31422,-0.2002 -0.63754,-0.49806 -0.97293,-0.88972 z m -1.60189,-3.30965 c 0.34117,-0.20161 0.56062,-0.3767 0.66169,-0.52781 0.10054,-0.15112 0.15102,-0.31903 0.15102,-0.50288 0,-0.21796 -0.0697,-0.39603 -0.20781,-0.5341 -0.13764,-0.13764 -0.31133,-0.20738 -0.51731,-0.20738 -0.21219,0 -0.39026,0.0678 -0.53122,0.20449 -0.14097,0.13668 -0.2122,0.30415 -0.2122,0.50287 0,0.0982 0.0255,0.203 0.077,0.31133 0.0505,0.11016 0.12609,0.22567 0.22855,0.34738 z m 1.10339,2.69854 -1.42671,-1.78188 c -0.42438,0.25069 -0.71069,0.48362 -0.85752,0.6987 -0.14814,0.21508 -0.22277,0.42727 -0.22277,0.63806 0,0.25647 0.10255,0.52352 0.30896,0.80117 0.2045,0.2772 0.49509,0.41528 0.87047,0.41528 0.23433,0 0.47776,-0.0712 0.72705,-0.21508 0.25069,-0.14394 0.4509,-0.32962 0.60052,-0.55625 z m 5.359479,1.36748 v -6.3723 h 2.40585 c 0.42299,0 0.74639,0.0207 0.97014,0.0606 0.31325,0.052 0.57549,0.15155 0.78768,0.29689 0.2122,0.14674 0.383,0.35123 0.51198,0.614 0.12897,0.26268 0.19294,0.55187 0.19294,0.86758 0,0.53988 -0.17229,0.99839 -0.51775,1.37228 -0.34449,0.37539 -0.96864,0.56203 -1.87087,0.56203 h -1.63453 v 2.59888 z m 0.84544,-3.34615 h 1.6466 c 0.54566,0 0.93155,-0.10106 1.16159,-0.30407 0.22855,-0.20361 0.34257,-0.48843 0.34257,-0.85751 0,-0.26557 -0.0669,-0.49421 -0.20161,-0.68374 -0.13519,-0.19005 -0.31325,-0.31614 -0.53271,-0.37678 -0.14236,-0.037 -0.40513,-0.0563 -0.7862,-0.0563 h -1.63024 z m 4.98409,3.34615 v -4.61886 h 0.70299 v 0.70736 c 0.17946,-0.32769 0.34598,-0.54426 0.49849,-0.64821 0.15305,-0.10535 0.32052,-0.15733 0.50288,-0.15733 0.26416,0 0.53271,0.0832 0.80554,0.24781 l -0.27861,0.72224 c -0.19014,-0.10684 -0.38019,-0.16022 -0.56972,-0.16022 -0.17089,0 -0.32341,0.052 -0.4586,0.15444 -0.13475,0.10255 -0.23144,0.24448 -0.28919,0.42736 -0.0876,0.27712 -0.13038,0.58127 -0.13038,0.91229 v 2.41312 z m 2.67877,-2.3097 c 0,-0.85261 0.23766,-1.48446 0.71358,-1.89536 0.39603,-0.34117 0.88105,-0.51198 1.45226,-0.51198 0.63325,0 1.1524,0.20791 1.55613,0.6231 0.40181,0.41389 0.60341,0.9879 0.60341,1.71932 0,0.59326 -0.089,1.05912 -0.26661,1.3988 -0.17798,0.33968 -0.43786,0.60341 -0.77903,0.79206 -0.33968,0.18813 -0.71218,0.2815 -1.1139,0.2815 -0.64672,0 -1.16884,-0.20598 -1.56776,-0.61978 -0.39936,-0.41388 -0.59808,-1.01003 -0.59808,-1.78766 z m 0.80117,0.002 c 0,0.59038 0.12898,1.03261 0.38737,1.32469 0.25935,0.29401 0.58416,0.44075 0.9773,0.44075 0.38877,0 0.71209,-0.14674 0.97145,-0.44215 0.25848,-0.29497 0.38737,-0.74446 0.38737,-1.34831 0,-0.56972 -0.13038,-1.00137 -0.39026,-1.29345 -0.25936,-0.29348 -0.58267,-0.44074 -0.96856,-0.44074 -0.39314,0 -0.71795,0.14534 -0.9773,0.43786 -0.25839,0.29208 -0.38737,0.73282 -0.38737,1.32135 z m 7.42425,2.30821 v -0.58609 c -0.29208,0.45571 -0.72233,0.68383 -1.29056,0.68383 -0.36812,0 -0.70588,-0.10063 -1.01292,-0.30363 -0.30888,-0.20213 -0.54759,-0.48555 -0.71795,-0.84737 -0.16932,-0.3633 -0.25402,-0.77999 -0.25402,-1.25162 0,-0.45999 0.0774,-0.87667 0.22995,-1.25206 0.15453,-0.3738 0.38449,-0.6616 0.69153,-0.86031 0.30556,-0.20021 0.64961,-0.29978 1.02779,-0.29978 0.27905,0 0.52641,0.0592 0.74298,0.17658 0.21648,0.1169 0.39306,0.27143 0.52973,0.45999 v -2.29184 h 0.78341 v 6.3723 z m -2.47428,-2.30339 c 0,0.59037 0.1246,1.03068 0.37529,1.32276 0.24929,0.2926 0.54426,0.43786 0.88394,0.43786 0.34266,0 0.63325,-0.13948 0.87388,-0.41861 0.23862,-0.27861 0.35893,-0.70448 0.35893,-1.27709 0,-0.62887 -0.12171,-1.09175 -0.36663,-1.38672 -0.24299,-0.29497 -0.54426,-0.44223 -0.90179,-0.44223 -0.34835,0 -0.63903,0.14096 -0.87336,0.42438 -0.23284,0.28342 -0.35026,0.72994 -0.35026,1.33965 z m 7.4598596,2.30339 v -0.68663 c -0.3590196,0.52353 -0.8454396,0.78437 -1.4613696,0.78437 -0.27143,0 -0.52501,-0.0515 -0.76082,-0.15549 -0.23573,-0.10535 -0.41091,-0.23573 -0.52493,-0.39306 -0.11454,-0.15881 -0.19442,-0.35176 -0.24062,-0.57987 -0.0308,-0.15444 -0.0472,-0.39796 -0.0472,-0.72994 v -2.85824 h 0.78288 v 2.55557 c 0,0.40802 0.0164,0.68374 0.0477,0.8247 0.0491,0.20598 0.15304,0.3662 0.31273,0.48363 0.15881,0.1169 0.35464,0.17657 0.58897,0.17657 0.23433,0 0.45431,-0.0597 0.6588,-0.17946 0.20449,-0.12032 0.35027,-0.28482 0.43593,-0.49132 0.0847,-0.20589 0.12749,-0.50716 0.12749,-0.90022 v -2.46947 h 0.7834096 v 4.61886 z m 4.94988,-1.69088 0.76564,0.10684 c -0.0847,0.52641 -0.29839,0.93731 -0.64384,1.2357 -0.34598,0.29785 -0.77133,0.44608 -1.2742,0.44608 -0.63036,0 -1.13805,-0.20598 -1.52052,-0.61838 -0.38404,-0.41239 -0.57549,-1.00276 -0.57549,-1.7712 0,-0.49806 0.0827,-0.93303 0.2478,-1.30692 0.1645,-0.37197 0.4152,-0.6525 0.75348,-0.83774 0.33635,-0.18717 0.70307,-0.28053 1.10051,-0.28053 0.49998,0 0.91089,0.12609 1.22799,0.37967 0.31903,0.25358 0.52396,0.61443 0.61304,1.07977 l -0.75689,0.11594 c -0.0727,-0.30985 -0.2002,-0.54278 -0.38544,-0.7001 -0.18385,-0.15593 -0.40662,-0.23433 -0.66747,-0.23433 -0.39454,0 -0.71497,0.14096 -0.96278,0.42245 -0.2464,0.28342 -0.3696,0.72854 -0.3696,1.33965 0,0.62021 0.11891,1.06962 0.35613,1.34971 0.23914,0.28053 0.54898,0.4215 0.93005,0.4215 0.30845,0 0.56544,-0.0934 0.76993,-0.28193 0.20642,-0.18673 0.33688,-0.47592 0.39166,-0.86618 z m 3.13255,0.99227 0.10684,0.69143 c -0.21945,0.0457 -0.41668,0.0693 -0.58853,0.0693 -0.28342,0 -0.50279,-0.0443 -0.66011,-0.13476 -0.15593,-0.0905 -0.26566,-0.2079 -0.32962,-0.35464 -0.0635,-0.14674 -0.0948,-0.45518 -0.0948,-0.92533 v -2.66145 h -0.57839 v -0.60555 h 0.57839 v -1.14233 l 0.7834,-0.47015 v 1.61248 h 0.78287 v 0.60481 h -0.78287 v 2.70573 c 0,0.22426 0.0135,0.36811 0.0414,0.43164 0.0269,0.064 0.0712,0.11454 0.13379,0.15304 0.062,0.037 0.15102,0.0563 0.26653,0.0563 0.0862,0 0.20064,-0.0106 0.34116,-0.0312 z m 0.77326,-4.78397 v -0.88972 h 0.78286998 v 0.88972 z m 0,5.48258 v -4.61886 h 0.78286998 v 4.61886 z m 1.68318002,-2.30969 c 0,-0.85261 0.23773996,-1.48446 0.71365998,-1.89537 0.39594,-0.34117 0.88105,-0.51197 1.45218,-0.51197 0.63325,0 1.15248,0.2079 1.55613,0.6231 0.4018,0.41388 0.60341,0.98789 0.60341,1.71931 0,0.59326 -0.089,1.05912 -0.26653,1.3988 -0.17807,0.33968 -0.43786,0.60341 -0.77903,0.79207 -0.33977,0.18812 -0.71218,0.28149 -1.11398,0.28149 -0.64673,0 -1.16876,-0.20598 -1.56768,-0.61978 -0.39945002,-0.41388 -0.59815998,-1.01003 -0.59815998,-1.78765 z m 0.80115998,0.002 c 0,0.59037 0.12898,1.0326 0.38737,1.32468 0.25936,0.29401 0.58416,0.44075 0.97731,0.44075 0.38877,0 0.71217,-0.14674 0.97153,-0.44215 0.25839,-0.29496 0.38737,-0.74446 0.38737,-1.34831 0,-0.56972 -0.13047,-1.00136 -0.39026,-1.29344 -0.25936,-0.29348 -0.58276,-0.44075 -0.96864,-0.44075 -0.39315,0 -0.71795,0.14534 -0.97731,0.43786 -0.25839,0.29208 -0.38737,0.73282 -0.38737,1.32136 z m 4.44281,2.3082 v -4.61885 h 0.70307 v 0.65538 c 0.3382,-0.50287 0.82759,-0.75356 1.46714,-0.75356 0.27861,0 0.53359,0.0505 0.76652,0.14963 0.23284,0.0997 0.40802,0.23144 0.5239597,0.39314 0.1155,0.1617 0.19731,0.35465 0.24299,0.57743 0.0284,0.14534 0.0433,0.39891 0.0433,0.76073 v 2.8361 H 8.8066176 v -2.80626 c 0,-0.31903 -0.0298,-0.55765 -0.0905,-0.71506 -0.0612,-0.15733 -0.1694,-0.28342 -0.32341,-0.37818 -0.15444,-0.0938 -0.33679,-0.14097 -0.54417,-0.14097 -0.3325,0 -0.61881,0.10535 -0.8604,0.31755 -0.24203,0.21026 -0.36235,0.61259 -0.36235,1.20297 v 2.51995 z m 4.6382004,-1.37955 0.77465,-0.1246 c 0.0429,0.30984 0.16459,0.54758 0.3633,0.71357 0.19872,0.1646 0.47733,0.24781 0.83346,0.24781 0.36042,0 0.62747,-0.0726 0.80256,-0.21937 0.17378,-0.14586 0.26128,-0.31763 0.26128,-0.51486 0,-0.17666 -0.0788,-0.31614 -0.23477,-0.41677 -0.10972,-0.0697 -0.37678,-0.15732 -0.80072,-0.26556 -0.57261,-0.14394 -0.96865,-0.26855 -1.19142,-0.3739 -0.22086,-0.10683 -0.38825,-0.25217 -0.50279,-0.43934 -0.1141,-0.18524 -0.17176,-0.39122 -0.17176,-0.61689 0,-0.20589 0.0471,-0.39603 0.14096,-0.57112 0.0948,-0.17474 0.22226,-0.32052 0.38396,-0.43602 0.12171,-0.089 0.28779,-0.1645 0.49709,-0.22707 0.21071,-0.0621 0.43445,-0.0934 0.67464,-0.0934 0.36226,0 0.67936,0.052 0.95219,0.15733 0.27476,0.10395 0.47645,0.24641 0.60683,0.42438 0.12898,0.17956 0.21989,0.41817 0.26845,0.71795 l -0.76502,0.10641 c -0.0342,-0.2402 -0.13528,-0.42832 -0.30127,-0.56351 -0.16599,-0.13476 -0.40085,-0.20161 -0.70448,-0.20161 -0.35744,0 -0.61443,0.0592 -0.76695,0.17807 -0.15304,0.1183 -0.23004,0.25787 -0.23004,0.41668 0,0.10107 0.0313,0.19294 0.0949,0.27423 0.064,0.0833 0.1631,0.15304 0.29978,0.20791 0.0784,0.0298 0.30696,0.0962 0.68951,0.2002 0.55188,0.14674 0.93785,0.26845 1.15721,0.36182 0.21946,0.0934 0.39175,0.23143 0.51635,0.4095 0.12609,0.17946 0.18813,0.4018 0.18813,0.66886 0,0.25979 -0.0755,0.50427 -0.22856,0.73423 -0.15251,0.23004 -0.37196,0.4081 -0.65827,0.53411 -0.28771,0.12609 -0.61251,0.18821 -0.97486,0.18821 -0.59912,0 -1.05763,-0.12416 -1.37185,-0.37197 -0.31474,-0.24929 -0.51485,-0.61741 -0.60244,-1.10532 z" />
      <path
         d="m -138.63771,185.61981 c 24.70673,0 33.75382,-21.40606 33.75382,-35.61592 0,-19.6754 -12.44022,-31.06182 -28.88168,-31.06182 -20.96579,0 -34.62371,16.39597 -34.62371,36.61826 0,16.03152 10.78695,30.05948 29.75157,30.05948 z m 0.78303,-6.7403 c -13.65791,0 -22.18348,-11.11343 -22.18348,-24.6854 0,-15.57664 9.48286,-28.51127 25.05444,-28.51127 11.39598,0 21.66131,8.47142 21.66131,24.77649 0,17.94463 -11.48293,28.42018 -24.53227,28.42018 z"
         style="fill:#000000;fill-rule:evenodd;stroke-width:0.9191491"
         id="path3807"
         inkscape:connector-curvature="0" />
      <path
         inkscape:connector-curvature="0"
         id="path3875"
         style="fill:#000000;fill-rule:evenodd"
         d="m 411.08419,89.210892 c 22.8084,0.198 26.7903,6.8377 26.7903,11.297498 0,9.7121 -12.0679,15.7573 -18.1011,18.4332 3.6201,4.1623 30.7717,33.3975 32.0998,34.785 l 9.1715,-6.0453 c -3.3792,-2.9734 -25.101,-25.0729 -28.1178,-28.4428 9.8958,-5.1532 16.7741,-11.6939 16.7741,-20.117598 0,-8.4236 -9.0505,-13.9733 -24.9794,-15.5593 -9.2925,-0.892 -19.4297,-0.991 -25.101,-0.991 0.3619,1.883 0.6033,22.397598 0.6033,25.370498 v 8.1266 c 0,2.0809 0.2414,33.4966 -0.2414,35.875 h 11.7055 c -0.2414,-1.4865 -0.6038,-26.5594 -0.6038,-30.3252 z" />
      <path
         inkscape:connector-curvature="0"
         id="path3877"
         style="fill:#000000;fill-rule:evenodd;stroke-width:0.9191491"
         d="m 451.93686,181.15983 c 24.70673,0 33.75382,-21.40606 33.75382,-35.61592 0,-19.6754 -12.44022,-31.06182 -28.88168,-31.06182 -20.96579,0 -34.62371,16.39597 -34.62371,36.61826 0,16.03152 10.78695,30.05948 29.75157,30.05948 z m 0.78303,-6.7403 c -13.65791,0 -22.18348,-11.11343 -22.18348,-24.68541 0,-15.57663 9.48286,-28.51126 25.05444,-28.51126 11.39598,0 21.66131,8.47142 21.66131,24.77648 0,17.94464 -11.48293,28.42019 -24.53227,28.42019 z" />
      <text
         xml:space="preserve"
         style="font-style:normal;font-weight:normal;font-size:40px;line-height:1.25;font-family:'Fira Code';letter-spacing:0px;word-spacing:0px;fill:#000000;fill-opacity:1;stroke:none;-inkscape-font-specification:'Fira Code';font-stretch:normal;font-variant:normal;"
         x="-206.35689"
         y="-291.05325"
         id="text3881"><tspan
           sodipodi:role="line"
           id="tspan3879"
           x="-206.35689"
           y="-255.66263"
           style="font-style:normal;font-variant:normal;font-weight:normal;font-stretch:normal;font-family:'Fira Code';-inkscape-font-specification:'Fira Code';" /></text>
      <text
         xml:space="preserve"
         style="font-style:normal;font-variant:normal;font-weight:normal;font-stretch:normal;font-size:40px;line-height:1.25;font-family:'Fira Mono';-inkscape-font-specification:'Fira Mono';letter-spacing:0px;word-spacing:0px;fill:#000000;fill-opacity:1;stroke:none"
         x="84.202339"
         y="-295.47705"
         id="text3885"><tspan
           sodipodi:role="line"
           id="tspan3883"
           x="84.202339"
           y="-295.47705">Antigo</tspan></text>
      <text
         xml:space="preserve"
         style="font-style:normal;font-variant:normal;font-weight:normal;font-stretch:normal;font-size:40px;line-height:1.25;font-family:'Fira Mono';-inkscape-font-specification:'Fira Mono';letter-spacing:0px;word-spacing:0px;fill:#000000;fill-opacity:1;stroke:none"
         x="106.92671"
         y="15.877331"
         id="text3889"><tspan
           sodipodi:role="line"
           id="tspan3887"
           x="106.92671"
           y="15.877331">Novo</tspan></text>
    </g>
  </g>
</svg>
