<?xml version="1.0" encoding="UTF-8" standalone="no"?>
<!-- Created with Inkscape (http://www.inkscape.org/) -->

<svg
   xmlns:dc="http://purl.org/dc/elements/1.1/"
   xmlns:cc="http://creativecommons.org/ns#"
   xmlns:rdf="http://www.w3.org/1999/02/22-rdf-syntax-ns#"
   xmlns:svg="http://www.w3.org/2000/svg"
   xmlns="http://www.w3.org/2000/svg"
   xmlns:sodipodi="http://sodipodi.sourceforge.net/DTD/sodipodi-0.dtd"
   xmlns:inkscape="http://www.inkscape.org/namespaces/inkscape"
   width="108.719"
   height="57.458"
   viewBox="0 0 28.765236 15.20243"
   version="1.1"
   id="svg8"
   inkscape:export-filename="C:\dev\romodels.com\assets\logo_final\alt_logo.png"
   inkscape:export-xdpi="50.209869"
   inkscape:export-ydpi="50.209869"
   inkscape:version="0.92.4 (5da689c313, 2019-01-14)"
   sodipodi:docname="logo.svg">
  <defs
     id="defs2" />
  <sodipodi:namedview
     id="base"
     pagecolor="#ffffff"
     bordercolor="#666666"
     borderopacity="1.0"
     inkscape:pageopacity="0.0"
     inkscape:pageshadow="2"
     inkscape:zoom="5.6"
     inkscape:cx="132.36059"
     inkscape:cy="1.6928718"
     inkscape:document-units="mm"
     inkscape:current-layer="layer1"
     showgrid="false"
     units="px"
     inkscape:window-width="1920"
     inkscape:window-height="1017"
     inkscape:window-x="-8"
     inkscape:window-y="-8"
     inkscape:window-maximized="1" />
  <metadata
     id="metadata5">
    <rdf:RDF>
      <cc:Work
         rdf:about="">
        <dc:format>image/svg+xml</dc:format>
        <dc:type
           rdf:resource="http://purl.org/dc/dcmitype/StillImage" />
        <dc:title></dc:title>
      </cc:Work>
    </rdf:RDF>
  </metadata>
  <g
     inkscape:label="Layer 1"
     inkscape:groupmode="layer"
     id="layer1"
     transform="translate(0,-281.79755)">
    <g
       id="Layer1000"
       transform="matrix(0.1262092,0,0,0.1262092,-1.7235753,280.41551)">
      <path
         inkscape:connector-curvature="0"
         id="path10"
         style="fill:#000000;fill-opacity:0;fill-rule:evenodd"
         d="M 229.0539,60.1506 H 77.873 v 1.5717 h 151.1809 z" />
      <path
         inkscape:connector-curvature="0"
         id="path12"
         style="fill:#000000;fill-rule:evenodd"
         d="m 24.872,17.5145 c 22.8084,0.198 26.7903,6.8377 26.7903,11.2975 0,9.7121 -12.0679,15.7573 -18.1011,18.4332 3.6201,4.1623 30.7717,33.3975 32.0998,34.785 l 9.1715,-6.0453 C 71.4533,73.0115 49.7315,50.912 46.7147,47.5421 56.6105,42.3889 63.4888,35.8482 63.4888,27.4245 c 0,-8.4236 -9.0505,-13.9733 -24.9794,-15.5593 -9.2925,-0.892 -19.4297,-0.991 -25.101,-0.991 0.3619,1.883 0.6033,22.3976 0.6033,25.3705 v 8.1266 c 0,2.0809 0.2414,33.4966 -0.2414,35.875 H 25.4758 C 25.2344,78.7598 24.872,53.6869 24.872,49.9211 Z" />
      <path
         inkscape:connector-curvature="0"
         id="path14"
         style="fill:#000000;fill-rule:evenodd"
         d="m 107.0571,90.5737 h 13.2321 V 88.8151 H 109.2628 V 69.8226 h -2.2057 z m 16.7075,0 h 2.2058 V 69.8226 h -2.2058 z m 14.1681,0 h 2.2046 l 8.9895,-20.7511 h -2.3393 l -7.6857,18.2011 -7.6185,-18.2011 h -2.3724 z m 14.3352,0 h 15.0034 v -1.7586 h -12.7977 v -8.0893 h 11.4944 v -1.7587 h -11.4944 v -7.3859 h 12.2632 v -1.7586 h -14.4689 z m 19.8157,0 h 2.2058 V 69.8226 h -2.2058 z m 10.8933,-18.9925 h 4.6776 c 4.6452,0 5.5476,2.2569 5.5476,3.6927 0,1.4364 -0.9024,3.6932 -5.5476,3.6932 h -4.6776 z m -2.2057,18.9925 h 2.2057 v -9.8479 h 4.1096 l 6.6501,9.8479 h 2.506 l -6.8839,-9.9651 c 2.6066,-0.2931 6.048,-1.3775 6.048,-5.3347 0,-5.4513 -6.549,-5.4513 -8.4203,-5.4513 h -6.2152 z m 16.7411,0 h 2.3058 l 2.6732,-5.5102 h 12.5309 l 2.5731,5.5102 h 2.473 l -9.9579,-20.7511 h -2.2723 z m 16.7076,-7.2688 h -10.8597 l 5.5134,-11.3723 z" />
      <path
         inkscape:connector-curvature="0"
         id="path16"
         style="fill:#000000;fill-rule:evenodd"
         d="m 106.7838,107.1311 v -7.2825 h 1.4446 l 1.7223,5.1549 c 0.159,0.4801 0.2744,0.8392 0.3476,1.0784 0.083,-0.2645 0.2133,-0.6544 0.3899,-1.168 l 1.7526,-5.0653 h 1.2901 v 7.2825 h -0.9255 v -6.0925 l -2.126,6.0925 h -0.8678 l -2.1023,-6.2047 v 6.2047 z m 8.0452,-2.6396 c 0,-0.9744 0.2717,-1.6965 0.8156,-2.1661 0.4526,-0.3899 1.0069,-0.5851 1.6596,-0.5851 0.7237,0 1.3171,0.2376 1.7785,0.7121 0.4591,0.473 0.6895,1.129 0.6895,1.9649 0,0.678 -0.1017,1.2104 -0.3046,1.5986 -0.2035,0.3882 -0.5004,0.6896 -0.8903,0.9052 -0.3883,0.215 -0.8139,0.3217 -1.2731,0.3217 -0.7391,0 -1.3357,-0.2354 -1.7916,-0.7083 -0.4564,-0.473 -0.6836,-1.1543 -0.6836,-2.043 z m 0.9157,0.002 c 0,0.6747 0.1473,1.1801 0.4426,1.5139 0.2964,0.336 0.6676,0.5037 1.1169,0.5037 0.4444,0 0.8139,-0.1677 1.1103,-0.5053 0.2953,-0.3371 0.4427,-0.8508 0.4427,-1.5409 0,-0.6511 -0.149,-1.1444 -0.446,-1.4782 -0.2964,-0.3354 -0.6659,-0.5037 -1.107,-0.5037 -0.4493,0 -0.8205,0.1661 -1.1169,0.5004 -0.2953,0.3338 -0.4426,0.8375 -0.4426,1.5101 z m 8.4846,2.6379 v -0.6698 c -0.3338,0.5208 -0.8254,0.7815 -1.4749,0.7815 -0.4206,0 -0.8067,-0.115 -1.1575,-0.347 -0.3531,-0.231 -0.6258,-0.5549 -0.8205,-0.9684 -0.1936,-0.4152 -0.2904,-0.8914 -0.2904,-1.4304 0,-0.5257 0.0886,-1.0019 0.2629,-1.4309 0.1765,-0.4272 0.4394,-0.7561 0.7902,-0.9832 0.3492,-0.2288 0.7424,-0.3426 1.1747,-0.3426 0.3189,0 0.6016,0.0676 0.849,0.2018 0.2475,0.1336 0.4493,0.3102 0.6055,0.5257 v -2.6192 h 0.8952 v 7.2825 z m -2.8276,-2.6324 c 0,0.6747 0.1424,1.1779 0.4289,1.5117 0.2848,0.3344 0.6219,0.5004 1.0102,0.5004 0.3915,0 0.7237,-0.1594 0.9986,-0.4784 0.2728,-0.3184 0.4103,-0.8051 0.4103,-1.4595 0,-0.7187 -0.1392,-1.2477 -0.4191,-1.5848 -0.2777,-0.3371 -0.6219,-0.5054 -1.0305,-0.5054 -0.3981,0 -0.7303,0.1611 -0.9981,0.485 -0.2662,0.3239 -0.4003,0.8342 -0.4003,1.531 z m 8.6776,0.9238 0.9255,0.1221 c -0.144,0.5373 -0.4135,0.9558 -0.8067,1.2527 -0.3932,0.2964 -0.8952,0.4455 -1.5068,0.4455 -0.7698,0 -1.3802,-0.237 -1.8312,-0.7116 -0.4509,-0.473 -0.6764,-1.1395 -0.6764,-1.9957 0,-0.8848 0.2271,-1.5727 0.6836,-2.0611 0.4559,-0.4899 1.0476,-0.7341 1.7746,-0.7341 0.7039,0 1.2785,0.2392 1.7239,0.7187 0.446,0.4801 0.6698,1.1543 0.6698,2.0243 0,0.0522 -0.002,0.132 -0.005,0.237 h -3.9314 c 0.0341,0.5785 0.1969,1.0223 0.4917,1.3291 0.2931,0.3069 0.661,0.4614 1.1003,0.4614 0.3272,0 0.6066,-0.0863 0.837,-0.2595 0.2326,-0.1727 0.4158,-0.4493 0.551,-0.8288 z m -2.9294,-1.4341 h 2.9399 c -0.0391,-0.4444 -0.1529,-0.7765 -0.3377,-0.9987 -0.2826,-0.3442 -0.6522,-0.5169 -1.1053,-0.5169 -0.4102,0 -0.7539,0.1375 -1.0338,0.4119 -0.2783,0.2744 -0.4323,0.6423 -0.4631,1.1037 z m 4.9658,3.1427 v -7.2825 h 0.8947 v 7.2825 z m 1.9236,-1.5766 0.8854,-0.1424 c 0.0489,0.3541 0.188,0.6258 0.4151,0.8155 0.2272,0.1881 0.5456,0.2832 0.9525,0.2832 0.4119,0 0.7171,-0.083 0.9173,-0.2507 0.1985,-0.1667 0.2986,-0.363 0.2986,-0.5884 0,-0.2019 -0.0902,-0.3613 -0.2684,-0.4763 -0.1254,-0.0797 -0.4306,-0.1798 -0.9151,-0.3035 -0.6544,-0.1645 -1.1069,-0.3069 -1.3615,-0.4273 -0.2525,-0.1221 -0.4438,-0.2882 -0.5747,-0.5021 -0.1303,-0.2117 -0.1963,-0.4471 -0.1963,-0.705 0,-0.2353 0.0539,-0.4526 0.1611,-0.6527 0.1083,-0.1997 0.2541,-0.3663 0.4388,-0.4983 0.1392,-0.1017 0.3289,-0.188 0.5681,-0.2595 0.2409,-0.071 0.4966,-0.1067 0.771,-0.1067 0.4141,0 0.7765,0.0594 1.0883,0.1798 0.314,0.1188 0.5444,0.2816 0.6934,0.485 0.1474,0.2052 0.2513,0.4779 0.3069,0.8205 l -0.8744,0.1216 c -0.0391,-0.2745 -0.1545,-0.4895 -0.3443,-0.644 -0.1897,-0.154 -0.458,-0.2304 -0.805,-0.2304 -0.4086,0 -0.7023,0.0676 -0.8766,0.2035 -0.1749,0.1352 -0.2629,0.2947 -0.2629,0.4762 0,0.1155 0.0358,0.2205 0.1084,0.3134 0.0731,0.0952 0.1864,0.1749 0.3426,0.2376 0.0896,0.0341 0.3508,0.11 0.788,0.2288 0.6308,0.1677 1.0718,0.3068 1.3225,0.4135 0.2508,0.1067 0.4477,0.2645 0.5901,0.468 0.1441,0.2051 0.215,0.4592 0.215,0.7644 0,0.2969 -0.0863,0.5763 -0.2612,0.8391 -0.1743,0.2629 -0.4251,0.4664 -0.7523,0.6104 -0.3288,0.1441 -0.7,0.2151 -1.1141,0.2151 -0.6846,0 -1.2087,-0.1419 -1.5678,-0.4251 -0.3597,-0.2849 -0.5884,-0.7056 -0.6885,-1.2632 z m 5.6757,1.5766 v -1.0173 h 1.0173 v 1.0173 c 0,0.3745 -0.066,0.6781 -0.2001,0.9085 -0.132,0.231 -0.3443,0.4102 -0.6341,0.5356 l -0.2442,-0.386 c 0.1898,-0.0831 0.3289,-0.2051 0.4174,-0.3646 0.0897,-0.1611 0.1403,-0.3916 0.1507,-0.6935 z m 5.2148,-2.3393 0.9052,-0.0814 c 0.0423,0.3662 0.1424,0.6659 0.3003,0.9019 0.1572,0.2337 0.4014,0.4239 0.7319,0.5697 0.3305,0.1441 0.7039,0.2166 1.1174,0.2166 0.3679,0 0.6918,-0.0538 0.9728,-0.1644 0.2816,-0.11 0.49,-0.2606 0.6275,-0.4526 0.1375,-0.1913 0.2068,-0.3998 0.2068,-0.6236 0,-0.2271 -0.066,-0.4256 -0.1986,-0.5966 -0.1319,-0.17 -0.3508,-0.3124 -0.656,-0.429 -0.1947,-0.0748 -0.6269,-0.1935 -1.2967,-0.3547 -0.6698,-0.1605 -1.1372,-0.3118 -1.4056,-0.4542 -0.347,-0.1831 -0.6049,-0.4102 -0.7743,-0.6797 -0.1716,-0.2694 -0.2562,-0.573 -0.2562,-0.9068 0,-0.3695 0.105,-0.7138 0.314,-1.0322 0.2084,-0.3206 0.5114,-0.5631 0.9134,-0.7292 0.4003,-0.1661 0.8457,-0.2491 1.3357,-0.2491 0.5389,0 1.0157,0.0863 1.4276,0.2612 0.4119,0.1727 0.7286,0.4289 0.9508,0.7677 0.2222,0.3376 0.341,0.7204 0.358,1.1477 l -0.9261,0.0715 c -0.0489,-0.4598 -0.2166,-0.8073 -0.5031,-1.041 -0.2865,-0.2359 -0.7105,-0.3525 -1.2698,-0.3525 -0.5829,0 -1.0085,0.1067 -1.2747,0.32 -0.2662,0.2139 -0.4003,0.4713 -0.4003,0.7732 0,0.2612 0.0951,0.4762 0.2832,0.6456 0.1864,0.1683 0.6698,0.3426 1.4528,0.5191 0.7831,0.1777 1.3204,0.3322 1.6124,0.4642 0.4218,0.1952 0.7352,0.441 0.9371,0.7407 0.2018,0.2986 0.3019,0.6429 0.3019,1.0327 0,0.3883 -0.11,0.7507 -0.3322,1.0933 -0.2221,0.3426 -0.5389,0.6087 -0.9546,0.7985 -0.4152,0.1897 -0.8816,0.2848 -1.4018,0.2848 -0.6577,0 -1.2087,-0.0968 -1.653,-0.2881 -0.4455,-0.1914 -0.793,-0.4796 -1.046,-0.8662 -0.254,-0.3849 -0.3866,-0.8204 -0.3998,-1.3071 z m 10.4358,0.4069 0.8749,0.1221 c -0.0968,0.6016 -0.3409,1.0712 -0.7358,1.4122 -0.3953,0.3404 -0.8815,0.5098 -1.4561,0.5098 -0.7204,0 -1.3006,-0.2354 -1.7378,-0.7067 -0.4388,-0.4713 -0.6577,-1.146 -0.6577,-2.0242 0,-0.5692 0.0946,-1.0663 0.2832,-1.4936 0.1881,-0.4251 0.4746,-0.7457 0.8612,-0.9574 0.3844,-0.2139 0.8034,-0.3206 1.2577,-0.3206 0.5713,0 1.041,0.1441 1.4034,0.4339 0.3645,0.2898 0.5988,0.7022 0.7005,1.234 l -0.865,0.1325 c -0.083,-0.3541 -0.2287,-0.6203 -0.4405,-0.8001 -0.21,-0.1782 -0.4646,-0.2678 -0.7627,-0.2678 -0.4509,0 -0.8172,0.1611 -1.1004,0.4828 -0.2815,0.3239 -0.4223,0.8326 -0.4223,1.531 0,0.7088 0.1358,1.2224 0.4069,1.5425 0.2733,0.3206 0.6275,0.4817 1.063,0.4817 0.3525,0 0.6462,-0.1067 0.8799,-0.3222 0.2359,-0.2134 0.3849,-0.5439 0.4476,-0.9899 z m 1.6377,1.9324 v -7.2825 h 0.8947 v 2.6209 c 0.4157,-0.4867 0.9392,-0.7292 1.5733,-0.7292 0.3882,0 0.7253,0.0764 1.014,0.2304 0.2865,0.1545 0.4917,0.3663 0.6154,0.6374 0.1237,0.2716 0.1848,0.6665 0.1848,1.1817 v 3.3413 h -0.8953 v -3.338 c 0,-0.4459 -0.0968,-0.7709 -0.2882,-0.9744 -0.1935,-0.2035 -0.4646,-0.3052 -0.8171,-0.3052 -0.2629,0 -0.5104,0.0676 -0.7424,0.2051 -0.2326,0.1375 -0.3971,0.3239 -0.4966,0.5593 -0.0984,0.2342 -0.1479,0.5576 -0.1479,0.9711 v 2.8821 z m 5.321,-2.6396 c 0,-0.9744 0.2716,-1.6965 0.8155,-2.1661 0.4526,-0.3899 1.0069,-0.5851 1.6596,-0.5851 0.7237,0 1.3171,0.2376 1.7785,0.7121 0.4591,0.473 0.6896,1.129 0.6896,1.9649 0,0.678 -0.1018,1.2104 -0.3047,1.5986 -0.2035,0.3882 -0.5004,0.6896 -0.8903,0.9052 -0.3882,0.215 -0.8139,0.3217 -1.2731,0.3217 -0.7391,0 -1.3357,-0.2354 -1.7916,-0.7083 -0.4564,-0.473 -0.6835,-1.1543 -0.6835,-2.043 z m 0.9156,0.002 c 0,0.6747 0.1474,1.1801 0.4427,1.5139 0.2964,0.336 0.6676,0.5037 1.1168,0.5037 0.4444,0 0.8139,-0.1677 1.1103,-0.5053 0.2953,-0.3371 0.4427,-0.8508 0.4427,-1.5409 0,-0.6511 -0.149,-1.1444 -0.446,-1.4782 -0.2964,-0.3354 -0.6659,-0.5037 -1.107,-0.5037 -0.4492,0 -0.8204,0.1661 -1.1168,0.5004 -0.2953,0.3338 -0.4427,0.8375 -0.4427,1.5101 z m 4.7414,-0.002 c 0,-0.9744 0.2716,-1.6965 0.8155,-2.1661 0.4526,-0.3899 1.0069,-0.5851 1.6596,-0.5851 0.7237,0 1.3171,0.2376 1.7785,0.7121 0.4591,0.473 0.6896,1.129 0.6896,1.9649 0,0.678 -0.1018,1.2104 -0.3047,1.5986 -0.2035,0.3882 -0.5004,0.6896 -0.8903,0.9052 -0.3883,0.215 -0.8139,0.3217 -1.2731,0.3217 -0.7391,0 -1.3357,-0.2354 -1.7916,-0.7083 -0.4564,-0.473 -0.6835,-1.1543 -0.6835,-2.043 z m 0.9156,0.002 c 0,0.6747 0.1473,1.1801 0.4427,1.5139 0.2964,0.336 0.6675,0.5037 1.1168,0.5037 0.4444,0 0.8139,-0.1677 1.1103,-0.5053 0.2953,-0.3371 0.4427,-0.8508 0.4427,-1.5409 0,-0.6511 -0.149,-1.1444 -0.446,-1.4782 -0.2964,-0.3354 -0.6659,-0.5037 -1.107,-0.5037 -0.4493,0 -0.8204,0.1661 -1.1168,0.5004 -0.2954,0.3338 -0.4427,0.8375 -0.4427,1.5101 z m 5.057,2.6379 v -7.2825 h 0.8947 v 7.2825 z m 9.2727,-0.8644 c -0.2948,0.3255 -0.617,0.5697 -0.9646,0.7325 -0.3475,0.1622 -0.7236,0.2436 -1.1289,0.2436 -0.7463,0 -1.3374,-0.2508 -1.7752,-0.7523 -0.3541,-0.4103 -0.5323,-0.8661 -0.5323,-1.3715 0,-0.4493 0.1441,-0.8546 0.4339,-1.2153 0.2904,-0.363 0.7242,-0.6803 1.2989,-0.9547 -0.3305,-0.3761 -0.551,-0.683 -0.661,-0.9189 -0.1105,-0.2337 -0.1666,-0.4608 -0.1666,-0.6797 0,-0.4372 0.1716,-0.8172 0.5158,-1.1389 0.342,-0.3239 0.7743,-0.485 1.2967,-0.485 0.4966,0 0.9052,0.1523 1.2219,0.4575 0.3173,0.3052 0.4751,0.6731 0.4751,1.1004 0,0.6935 -0.4613,1.2868 -1.3852,1.7768 l 1.3187,1.6541 c 0.1512,-0.2914 0.2678,-0.6285 0.3509,-1.0134 l 0.926,0.2001 c -0.1595,0.6335 -0.375,1.1526 -0.6478,1.5574 0.3338,0.4427 0.7138,0.8139 1.1356,1.1158 l -0.6,0.7083 c -0.3591,-0.2288 -0.7286,-0.5692 -1.1119,-1.0168 z m -1.8307,-3.7824 c 0.3899,-0.2304 0.6407,-0.4305 0.7562,-0.6032 0.1149,-0.1727 0.1726,-0.3646 0.1726,-0.5747 0,-0.2491 -0.0797,-0.4526 -0.2375,-0.6104 -0.1573,-0.1573 -0.3558,-0.237 -0.5912,-0.237 -0.2425,0 -0.446,0.0775 -0.6071,0.2337 -0.1611,0.1562 -0.2425,0.3476 -0.2425,0.5747 0,0.1122 0.0291,0.232 0.088,0.3558 0.0577,0.1259 0.1441,0.2579 0.2612,0.397 z m 1.261,3.084 -1.6305,-2.0364 c -0.485,0.2865 -0.8122,0.5527 -0.98,0.7985 -0.1693,0.2458 -0.2546,0.4883 -0.2546,0.7292 0,0.2931 0.1172,0.5983 0.3531,0.9156 0.2337,0.3168 0.5658,0.4746 0.9948,0.4746 0.2678,0 0.546,-0.0814 0.8309,-0.2458 0.2865,-0.1645 0.5153,-0.3767 0.6863,-0.6357 z m 6.125,1.5628 v -7.2825 h 2.7495 c 0.4834,0 0.853,0.0236 1.1087,0.0693 0.358,0.0594 0.6577,0.1732 0.9002,0.3393 0.2425,0.1677 0.4377,0.4014 0.5851,0.7017 0.1474,0.3002 0.2205,0.6307 0.2205,0.9915 0,0.617 -0.1969,1.141 -0.5917,1.5683 -0.3937,0.429 -1.107,0.6423 -2.1381,0.6423 h -1.868 v 2.9701 z m 0.9662,-3.8241 h 1.8818 c 0.6236,0 1.0646,-0.1155 1.3275,-0.3475 0.2612,-0.2327 0.3915,-0.5582 0.3915,-0.98 0,-0.3035 -0.0764,-0.5648 -0.2304,-0.7814 -0.1545,-0.2172 -0.358,-0.3613 -0.6088,-0.4306 -0.1627,-0.0423 -0.463,-0.0643 -0.8985,-0.0643 h -1.8631 z m 5.696,3.8241 v -5.2786 h 0.8034 v 0.8084 c 0.2051,-0.3745 0.3954,-0.622 0.5697,-0.7408 0.1749,-0.1204 0.3663,-0.1798 0.5747,-0.1798 0.3019,0 0.6088,0.0951 0.9206,0.2832 l -0.3184,0.8254 c -0.2173,-0.1221 -0.4345,-0.1831 -0.6511,-0.1831 -0.1953,0 -0.3696,0.0594 -0.5241,0.1765 -0.154,0.1172 -0.2645,0.2794 -0.3305,0.4884 -0.1001,0.3167 -0.149,0.6643 -0.149,1.0426 v 2.7578 z m 3.0614,-2.6396 c 0,-0.9744 0.2716,-1.6965 0.8155,-2.1661 0.4526,-0.3899 1.0069,-0.5851 1.6597,-0.5851 0.7237,0 1.317,0.2376 1.7784,0.7121 0.4592,0.473 0.6896,1.129 0.6896,1.9649 0,0.678 -0.1017,1.2104 -0.3047,1.5986 -0.2034,0.3882 -0.5004,0.6896 -0.8903,0.9052 -0.3882,0.215 -0.8139,0.3217 -1.273,0.3217 -0.7391,0 -1.3358,-0.2354 -1.7917,-0.7083 -0.4564,-0.473 -0.6835,-1.1543 -0.6835,-2.043 z m 0.9156,0.002 c 0,0.6747 0.1474,1.1801 0.4427,1.5139 0.2964,0.336 0.6676,0.5037 1.1169,0.5037 0.4443,0 0.8138,-0.1677 1.1102,-0.5053 0.2954,-0.3371 0.4427,-0.8508 0.4427,-1.5409 0,-0.6511 -0.149,-1.1444 -0.446,-1.4782 -0.2964,-0.3354 -0.6659,-0.5037 -1.1069,-0.5037 -0.4493,0 -0.8205,0.1661 -1.1169,0.5004 -0.2953,0.3338 -0.4427,0.8375 -0.4427,1.5101 z m 8.4847,2.6379 v -0.6698 c -0.3338,0.5208 -0.8255,0.7815 -1.4749,0.7815 -0.4207,0 -0.8067,-0.115 -1.1576,-0.347 -0.353,-0.231 -0.6258,-0.5549 -0.8205,-0.9684 -0.1935,-0.4152 -0.2903,-0.8914 -0.2903,-1.4304 0,-0.5257 0.0885,-1.0019 0.2628,-1.4309 0.1766,-0.4272 0.4394,-0.7561 0.7903,-0.9832 0.3492,-0.2288 0.7424,-0.3426 1.1746,-0.3426 0.3189,0 0.6016,0.0676 0.8491,0.2018 0.2474,0.1336 0.4492,0.3102 0.6054,0.5257 v -2.6192 h 0.8953 v 7.2825 z m -2.8277,-2.6324 c 0,0.6747 0.1424,1.1779 0.4289,1.5117 0.2849,0.3344 0.622,0.5004 1.0102,0.5004 0.3916,0 0.7237,-0.1594 0.9987,-0.4784 0.2727,-0.3184 0.4102,-0.8051 0.4102,-1.4595 0,-0.7187 -0.1391,-1.2477 -0.419,-1.5848 -0.2777,-0.3371 -0.622,-0.5054 -1.0306,-0.5054 -0.3981,0 -0.7303,0.1611 -0.9981,0.485 -0.2661,0.3239 -0.4003,0.8342 -0.4003,1.531 z m 8.5254,2.6324 v -0.7847 c -0.4103,0.5983 -0.9662,0.8964 -1.6701,0.8964 -0.3102,0 -0.6,-0.0589 -0.8695,-0.1777 -0.2694,-0.1204 -0.4696,-0.2694 -0.5999,-0.4492 -0.1309,-0.1815 -0.2222,-0.402 -0.275,-0.6627 -0.0352,-0.1765 -0.0539,-0.4548 -0.0539,-0.8342 v -3.2665 h 0.8947 v 2.9206 c 0,0.4663 0.0187,0.7814 0.0545,0.9425 0.0561,0.2354 0.1749,0.4185 0.3574,0.5527 0.1815,0.1336 0.4053,0.2018 0.6731,0.2018 0.2678,0 0.5192,-0.0682 0.7529,-0.2051 0.2337,-0.1375 0.4003,-0.3255 0.4982,-0.5615 0.0968,-0.2353 0.1457,-0.5796 0.1457,-1.0288 v -2.8222 h 0.8953 v 5.2786 z m 5.6569,-1.9324 0.875,0.1221 c -0.0968,0.6016 -0.341,1.0712 -0.7358,1.4122 -0.3954,0.3404 -0.8815,0.5098 -1.4562,0.5098 -0.7204,0 -1.3006,-0.2354 -1.7377,-0.7067 -0.4389,-0.4713 -0.6577,-1.146 -0.6577,-2.0242 0,-0.5692 0.0945,-1.0663 0.2832,-1.4936 0.188,-0.4251 0.4745,-0.7457 0.8611,-0.9574 0.3844,-0.2139 0.8035,-0.3206 1.2577,-0.3206 0.5714,0 1.041,0.1441 1.4034,0.4339 0.3646,0.2898 0.5988,0.7022 0.7006,1.234 l -0.865,0.1325 c -0.0831,-0.3541 -0.2288,-0.6203 -0.4405,-0.8001 -0.2101,-0.1782 -0.4647,-0.2678 -0.7628,-0.2678 -0.4509,0 -0.8171,0.1611 -1.1003,0.4828 -0.2816,0.3239 -0.4224,0.8326 -0.4224,1.531 0,0.7088 0.1359,1.2224 0.407,1.5425 0.2733,0.3206 0.6274,0.4817 1.0629,0.4817 0.3525,0 0.6462,-0.1067 0.8799,-0.3222 0.2359,-0.2134 0.385,-0.5439 0.4476,-0.9899 z m 3.58,1.134 0.1221,0.7902 c -0.2508,0.0522 -0.4762,0.0792 -0.6726,0.0792 -0.3239,0 -0.5746,-0.0506 -0.7544,-0.154 -0.1782,-0.1034 -0.3036,-0.2376 -0.3767,-0.4053 -0.0726,-0.1677 -0.1084,-0.5202 -0.1084,-1.0575 v -3.0416 h -0.661 v -0.6912 h 0.661 v -1.3055 l 0.8953,-0.5373 v 1.8428 h 0.8947 v 0.6912 h -0.8947 v 3.0922 c 0,0.2563 0.0154,0.4207 0.0473,0.4933 0.0308,0.0731 0.0814,0.1309 0.1529,0.1749 0.0709,0.0423 0.1726,0.0643 0.3046,0.0643 0.0985,0 0.2293,-0.0121 0.3899,-0.0357 z m 0.8837,-5.4673 v -1.0168 h 0.8947 v 1.0168 z m 0,6.2657 v -5.2786 h 0.8947 v 5.2786 z m 1.9236,-2.6396 c 0,-0.9744 0.2717,-1.6965 0.8156,-2.1661 0.4525,-0.3899 1.0069,-0.5851 1.6596,-0.5851 0.7237,0 1.3171,0.2376 1.7784,0.7121 0.4592,0.473 0.6896,1.129 0.6896,1.9649 0,0.678 -0.1017,1.2104 -0.3046,1.5986 -0.2035,0.3882 -0.5004,0.6896 -0.8903,0.9052 -0.3883,0.215 -0.8139,0.3217 -1.2731,0.3217 -0.7391,0 -1.3357,-0.2354 -1.7916,-0.7083 -0.4565,-0.473 -0.6836,-1.1543 -0.6836,-2.043 z m 0.9156,0.002 c 0,0.6747 0.1474,1.1801 0.4427,1.5139 0.2964,0.336 0.6676,0.5037 1.1169,0.5037 0.4443,0 0.8139,-0.1677 1.1103,-0.5053 0.2953,-0.3371 0.4427,-0.8508 0.4427,-1.5409 0,-0.6511 -0.1491,-1.1444 -0.446,-1.4782 -0.2964,-0.3354 -0.666,-0.5037 -1.107,-0.5037 -0.4493,0 -0.8205,0.1661 -1.1169,0.5004 -0.2953,0.3338 -0.4427,0.8375 -0.4427,1.5101 z m 5.0774,2.6379 v -5.2786 h 0.8035 v 0.749 c 0.3865,-0.5747 0.9458,-0.8612 1.6767,-0.8612 0.3184,0 0.6098,0.0577 0.876,0.171 0.2661,0.1139 0.4663,0.2645 0.5988,0.4493 0.132,0.1848 0.2255,0.4053 0.2777,0.6599 0.0325,0.1661 0.0495,0.4559 0.0495,0.8694 v 3.2412 h -0.8952 v -3.2071 c 0,-0.3646 -0.0341,-0.6373 -0.1034,-0.8172 -0.0699,-0.1798 -0.1936,-0.3239 -0.3696,-0.4322 -0.1765,-0.1072 -0.3849,-0.1611 -0.6219,-0.1611 -0.38,0 -0.7072,0.1204 -0.9833,0.3629 -0.2766,0.2403 -0.4141,0.7001 -0.4141,1.3748 v 2.8799 z m 5.3007,-1.5766 0.8853,-0.1424 c 0.049,0.3541 0.1881,0.6258 0.4152,0.8155 0.2271,0.1881 0.5455,0.2832 0.9525,0.2832 0.4119,0 0.7171,-0.083 0.9172,-0.2507 0.1986,-0.1667 0.2986,-0.363 0.2986,-0.5884 0,-0.2019 -0.0901,-0.3613 -0.2683,-0.4763 -0.1254,-0.0797 -0.4306,-0.1798 -0.9151,-0.3035 -0.6544,-0.1645 -1.107,-0.3069 -1.3616,-0.4273 -0.2524,-0.1221 -0.4437,-0.2882 -0.5746,-0.5021 -0.1304,-0.2117 -0.1963,-0.4471 -0.1963,-0.705 0,-0.2353 0.0538,-0.4526 0.1611,-0.6527 0.1083,-0.1997 0.254,-0.3663 0.4388,-0.4983 0.1391,-0.1017 0.3289,-0.188 0.5681,-0.2595 0.2408,-0.071 0.4965,-0.1067 0.771,-0.1067 0.414,0 0.7764,0.0594 1.0882,0.1798 0.314,0.1188 0.5445,0.2816 0.6935,0.485 0.1474,0.2052 0.2513,0.4779 0.3068,0.8205 l -0.8743,0.1216 c -0.0391,-0.2745 -0.1546,-0.4895 -0.3443,-0.644 -0.1897,-0.154 -0.4581,-0.2304 -0.8051,-0.2304 -0.4085,0 -0.7022,0.0676 -0.8765,0.2035 -0.1749,0.1352 -0.2629,0.2947 -0.2629,0.4762 0,0.1155 0.0358,0.2205 0.1084,0.3134 0.0731,0.0952 0.1864,0.1749 0.3426,0.2376 0.0896,0.0341 0.3508,0.11 0.788,0.2288 0.6307,0.1677 1.0718,0.3068 1.3225,0.4135 0.2508,0.1067 0.4477,0.2645 0.5901,0.468 0.1441,0.2051 0.215,0.4592 0.215,0.7644 0,0.2969 -0.0863,0.5763 -0.2612,0.8391 -0.1743,0.2629 -0.4251,0.4664 -0.7523,0.6104 -0.3288,0.1441 -0.7,0.2151 -1.1141,0.2151 -0.6847,0 -1.2087,-0.1419 -1.5678,-0.4251 -0.3597,-0.2849 -0.5884,-0.7056 -0.6885,-1.2632 z" />
      <path
         inkscape:connector-curvature="0"
         id="path18"
         style="fill:#000000;fill-rule:evenodd"
         d="m 65.4586,44.269 c 0,6.3307 5.0125,10.9027 12.2302,10.9027 7.2182,0 12.2301,-4.572 12.2301,-10.9027 0,-6.3311 -5.0119,-10.9032 -12.2301,-10.9032 -7.2177,0 -12.2302,4.5721 -12.2302,10.9032 z m 2.2057,0 c 0,-5.1587 3.8423,-9.1445 10.0245,-9.1445 6.1816,0 10.0249,3.9858 10.0249,9.1445 0,5.1583 -3.8433,9.1441 -10.0249,9.1441 -6.1822,0 -10.0245,-3.9858 -10.0245,-9.1441 z m 27.2006,10.3753 h 2.2057 v -18.172 h 0.066 l 14.4028,18.172 h 2.8398 V 33.8932 h -2.2057 v 18.172 h -0.066 L 97.7046,33.8932 h -2.8397 z m 22.9227,0 h 2.3058 l 2.6731,-5.5101 h 12.531 l 2.5731,5.5101 h 2.4729 l -9.9579,-20.7511 h -2.2722 z m 16.7076,-7.2688 H 123.636 l 5.5134,-11.3723 z m 9.2562,7.2688 H 156.984 V 52.8857 H 145.9571 V 33.8932 h -2.2057 z m 16.4067,0 h 7.3183 c 12.2967,0 12.7982,-8.8514 12.7982,-10.3753 0,-1.5243 -0.5015,-10.3758 -12.7982,-10.3758 h -7.3183 z m 2.2058,-18.9925 h 4.5445 c 6.2817,0 11.1611,2.6671 11.1611,8.6172 0,5.9496 -4.8794,8.6167 -11.1611,8.6167 h -4.5445 z m 21.3191,8.6172 c 0,6.3307 5.0125,10.9027 12.2302,10.9027 7.2182,0 12.2296,-4.572 12.2296,-10.9027 0,-6.3311 -5.0114,-10.9032 -12.2296,-10.9032 -7.2177,0 -12.2302,4.5721 -12.2302,10.9032 z m 2.2057,0 c 0,-5.1587 3.8423,-9.1445 10.0245,-9.1445 6.1816,0 10.025,3.9858 10.025,9.1445 0,5.1583 -3.8434,9.1441 -10.025,9.1441 -6.1822,0 -10.0245,-3.9858 -10.0245,-9.1441 z" />
      <path
         inkscape:connector-curvature="0"
         id="path20"
         style="fill:#000000;fill-rule:evenodd"
         d="m 64.3417,131.3286 c 26.88,0 36.7229,-23.289 36.7229,-38.7488 0,-21.4061 -13.5345,-33.7941 -31.4222,-33.7941 -22.81,0 -37.6693,17.8382 -37.6693,39.8393 0,17.4417 11.7358,32.7036 32.3686,32.7036 z m 0.8519,-7.3332 c -14.8593,0 -24.1348,-12.091 -24.1348,-26.8568 0,-16.9468 10.317,-31.0192 27.2583,-31.0192 12.3984,0 23.5667,9.2166 23.5667,26.9559 0,19.5231 -12.493,30.9201 -26.6902,30.9201 z" />
    </g>
  </g>
</svg>
